<?xml version="1.0" encoding="utf-8"?>
<!-- Generator: Adobe Illustrator 27.5.0, SVG Export Plug-In . SVG Version: 6.00 Build 0)  -->
<svg version="1.1" xmlns="http://www.w3.org/2000/svg" xmlns:xlink="http://www.w3.org/1999/xlink" x="0px" y="0px"
	 viewBox="0 0 500 500" style="enable-background:new 0 0 500 500;" xml:space="preserve">
<g id="BACKGROUND">
</g>
<g id="OBJECTS">
	<g>
		<circle style="fill:#96D1F0;" cx="250" cy="250" r="216.034"/>
		<path style="fill:#E5EDF9;" d="M443.045,416.128H196.803c-4.496,0-8.141-3.645-8.141-8.141l0,0c0-4.496,3.645-8.141,8.141-8.141
			h246.242c4.496,0,8.141,3.645,8.141,8.141l0,0C451.186,412.483,447.541,416.128,443.045,416.128z"/>
		<path style="fill:#E5EDF9;" d="M222.568,468.92H63.85c-4.496,0-8.141-3.645-8.141-8.141v0c0-4.496,3.645-8.141,8.141-8.141
			h158.717c4.496,0,8.141,3.645,8.141,8.141v0C230.709,465.275,227.064,468.92,222.568,468.92z"/>
		<rect x="173.58" y="75.128" style="fill:#FFFFFF;" width="85.454" height="103.681"/>
		<path style="fill:#81BDC1;stroke:#4288C5;stroke-width:7;stroke-miterlimit:10;" d="M252.217,178.809h-71.819
			c-3.765,0-6.818-3.052-6.818-6.818V81.946c0-3.765,3.052-6.818,6.818-6.818h71.819c3.765,0,6.818,3.052,6.818,6.818v90.045
			C259.034,175.757,255.982,178.809,252.217,178.809z"/>
		<g>
			<g>
				<g>
					<path style="fill:#C8CFD8;" d="M360.03,274.167c-3.979,0-7.204-3.225-7.204-7.204V127c0-17.201,13.994-31.194,31.195-31.194
						h28.912c3.979,0,7.204,3.226,7.204,7.204s-3.225,7.204-7.204,7.204h-28.912c-9.256,0-16.786,7.53-16.786,16.786v139.963
						C367.234,270.942,364.009,274.167,360.03,274.167z"/>
				</g>
				
					<ellipse transform="matrix(0.7071 -0.7071 0.7071 0.7071 48.3575 322.6625)" style="fill:#C8CFD8;" cx="413.667" cy="102.959" rx="8.843" ry="8.843"/>
				<rect x="427.889" y="225.468" style="fill:#D1DAE3;" width="6.424" height="11.493"/>
				<g>
					<rect x="308.396" y="269.537" style="fill:#B6C1CE;" width="24.598" height="28.65"/>
					<path style="fill:#C8CFD8;" d="M385.412,407.987h-31.299V266.55h24.119c3.965,0,7.18,3.214,7.18,7.18V407.987z"/>
					<path style="fill:#FFFFFF;" d="M358.053,266.55h-8.457c-26.31,0-47.638,21.328-47.638,47.638v93.799h63.275V273.73
						C365.233,269.765,362.018,266.55,358.053,266.55z"/>
					<path style="fill:#D1DAE3;" d="M313.95,238.317v18.455h-28.806c-3.525,0-6.383,2.858-6.383,6.383l0,0
						c0,3.525,2.858,6.383,6.383,6.383h40.16c3.922,0,7.101-3.179,7.101-7.101v-24.119H313.95z"/>
					<path style="fill:#FFFFFF;" d="M289.966,256.771h4.076c10.192,0,18.455-8.262,18.455-18.455l0,0h-40.985l0,0
						C271.512,248.509,279.774,256.771,289.966,256.771z"/>
					
						<line style="fill:none;stroke:#C3D6EF;stroke-width:3.1518;stroke-linecap:round;stroke-miterlimit:10;" x1="271.512" y1="238.317" x2="312.496" y2="238.317"/>
					<path style="fill:none;stroke:#FFFFFF;stroke-width:3.1518;stroke-miterlimit:10;" d="M317.739,238.317v-5.085
						c0-4.288-3.476-7.764-7.764-7.764h-0.75c-4.288,0-7.764,3.476-7.764,7.764l0,0"/>
					<path style="fill:none;stroke:#FFFFFF;stroke-width:3.1518;stroke-miterlimit:10;" d="M327.493,238.317V219.29
						c0-3.684-2.987-6.671-6.671-6.671h0c-1.887,0-3.685,0.799-4.95,2.199l-5.029,5.565"/>
				</g>
				<path style="fill:#FFFFFF;" d="M401.557,242.225v-7.816c0-1.398-1.134-2.532-2.532-2.532h-45.713
					c-1.232,0-2.231,0.999-2.231,2.231v8.417c0,1.232,0.999,2.231,2.231,2.231h45.713
					C400.424,244.756,401.557,243.623,401.557,242.225z"/>
				<path style="fill:#FFFFFF;" d="M435.218,225.498v-12.879h-45.621c-3.556,0-6.44,2.883-6.44,6.44l0,0
					c0,3.557,2.883,6.44,6.44,6.44H435.218z"/>
				<g>
					<path style="fill:none;stroke:#D1DAE3;stroke-width:1.801;stroke-miterlimit:10;" d="M433.801,262.003v46.637
						c0,5.521,4.475,9.996,9.996,9.996l0,0c5.521,0,9.996-4.475,9.996-9.996v-17.772c0-12.272-3.718-24.257-10.664-34.374h0"/>
					<path style="fill:none;stroke:#D1DAE3;stroke-width:1.801;stroke-miterlimit:10;" d="M421.105,262.003v46.637
						c0,5.521,4.475,9.996,9.996,9.996h0c5.521,0,9.996-4.475,9.996-9.996v-17.772c0-12.272-3.718-24.257-10.664-34.374l0,0"/>
					<path style="fill:none;stroke:#D1DAE3;stroke-width:1.801;stroke-miterlimit:10;" d="M408.52,262.003v46.637
						c0,5.521,4.475,9.996,9.996,9.996l0,0c5.521,0,9.996-4.475,9.996-9.996v-17.772c0-12.272-3.718-24.257-10.664-34.374l0,0"/>
					<g>
						<path style="fill:#FFFFFF;" d="M395.444,252.752h83.985v-16.005h-52.433l-9.712,1.939
							C408.487,240.443,400.683,245.469,395.444,252.752L395.444,252.752z"/>
						<path style="fill:#D1DAE3;" d="M447.878,252.752h31.551v-16.005l-9.712,1.939C460.92,240.443,453.116,245.469,447.878,252.752
							L447.878,252.752z"/>
						<path style="fill:#D1DAE3;" d="M395.444,252.492h63.737v8.003h-51.998c-4.648,0-8.911-2.584-11.061-6.705L395.444,252.492z"/>
						<path style="fill:#D1DAE3;" d="M447.878,252.492h31.551v8.003h-19.813c-4.648,0-8.911-2.584-11.061-6.705L447.878,252.492z"/>
					</g>
					<g>
						<rect x="407.261" y="261.971" style="fill:#D8D8D8;" width="2.616" height="4.992"/>
						<g>
							<path style="fill:#5E7886;" d="M410.592,261.971h-4.046v-17.685c0-1.062,0.247-2.109,0.722-3.058l1.318-2.636l3.619,1.809
								l-0.891,1.782c-0.475,0.95-0.722,1.997-0.722,3.058V261.971z"/>
						</g>
						<rect x="404.773" y="236.961" style="fill:#5E7886;" width="7.433" height="3.439"/>
						
							<rect x="403.065" y="238.305" transform="matrix(-1 -1.224647e-16 1.224647e-16 -1 807.8382 477.3618)" style="fill:#5E7886;" width="1.708" height="0.751"/>
					</g>
					<path style="fill:#D1DAE3;" d="M411.085,259.605h2.522v-7.113h-2.522c-1.434,0-2.595,1.162-2.595,2.596v1.922
						C408.489,258.443,409.651,259.605,411.085,259.605z"/>
					<g>
						<rect x="419.877" y="261.971" style="fill:#D8D8D8;" width="2.616" height="4.992"/>
						<g>
							<path style="fill:#5E7886;" d="M423.208,261.971h-4.046v-17.685c0-1.062,0.247-2.109,0.722-3.058l1.318-2.636l3.619,1.809
								l-0.891,1.782c-0.475,0.95-0.722,1.997-0.722,3.058V261.971z"/>
						</g>
						<rect x="417.389" y="236.961" style="fill:#5E7886;" width="7.433" height="3.439"/>
						
							<rect x="415.681" y="238.305" transform="matrix(-1 -1.224647e-16 1.224647e-16 -1 833.0694 477.3618)" style="fill:#5E7886;" width="1.708" height="0.751"/>
					</g>
					<path style="fill:#D1DAE3;" d="M423.7,259.605h2.522v-7.113H423.7c-1.434,0-2.595,1.162-2.595,2.596v1.922
						C421.105,258.443,422.267,259.605,423.7,259.605z"/>
					<g>
						<rect x="432.492" y="261.971" style="fill:#D8D8D8;" width="2.616" height="4.992"/>
						<g>
							<path style="fill:#5E7886;" d="M435.824,261.971h-4.046v-17.685c0-1.062,0.247-2.109,0.722-3.058l1.318-2.636l3.619,1.809
								l-0.891,1.782c-0.475,0.95-0.722,1.997-0.722,3.058V261.971z"/>
						</g>
						<rect x="430.004" y="236.961" style="fill:#5E7886;" width="7.433" height="3.439"/>
						
							<rect x="428.296" y="238.305" transform="matrix(-1 -1.224647e-16 1.224647e-16 -1 858.3006 477.3618)" style="fill:#5E7886;" width="1.708" height="0.751"/>
					</g>
					<path style="fill:#D1DAE3;" d="M436.316,259.605h2.522v-7.113h-2.522c-1.433,0-2.596,1.162-2.596,2.596v1.922
						C433.72,258.443,434.883,259.605,436.316,259.605z"/>
				</g>
				<circle style="fill:#D1DAE3;" cx="435.109" cy="219.058" r="6.44"/>
				<rect x="390.956" y="225.468" style="fill:#D1DAE3;" width="6.425" height="6.424"/>
				<g>
					<path style="fill:#FFFFFF;" d="M307.917,160.247c-2.829,0.205-5.632-1.282-6.974-3.978c-1.772-3.563-0.32-7.887,3.242-9.659
						l105.859-50.049c3.562-1.772,7.887-0.32,9.659,3.242c1.772,3.563,0.32,7.887-3.242,9.659L310.602,159.51
						C309.736,159.941,308.825,160.181,307.917,160.247z"/>
				</g>
				<g>
					<g>
						<path style="fill:#C8CFD8;" d="M286.391,190.11c-0.425,0.156-0.891,0.222-1.371,0.178c-1.74-0.158-3.023-1.696-2.865-3.436
							l0.755-8.315c1.052-11.597,8.799-21.675,19.734-25.676c1.641-0.6,3.458,0.243,4.058,1.884c0.6,1.641-0.243,3.458-1.884,4.058
							c-8.648,3.164-14.774,11.134-15.607,20.305l-0.755,8.315C288.343,188.683,287.505,189.703,286.391,190.11z"/>
					</g>
					<path style="fill:#97B3D9;" d="M304.287,192.792h-28.73c-2.572,0-4.997-1.2-6.558-3.245l-11.508-15.079
						c-1.583-2.075-0.104-5.065,2.506-5.065h28.73c2.572,0,4.997,1.2,6.558,3.245l11.508,15.079
						C308.376,189.802,306.897,192.792,304.287,192.792z"/>
					<g>
						<path style="fill:#FDF5AB;" d="M270.356,190.773c-1.931,0-3.782-0.917-4.953-2.451l-11.508-15.079
							c-0.385-0.505-0.209-1.001-0.115-1.191c0.094-0.189,0.381-0.631,1.017-0.631h28.73c1.931,0,3.782,0.917,4.953,2.451
							l11.508,15.079c0.386,0.505,0.209,1.001,0.115,1.19c-0.094,0.189-0.381,0.631-1.017,0.631H270.356z"/>
						<path style="fill:#FFFFFF;" d="M283.526,173.441c1.305,0,2.556,0.619,3.348,1.657l10.422,13.657h-26.941
							c-1.305,0-2.557-0.619-3.348-1.657l-10.422-13.657H283.526 M283.526,169.403h-28.73c-2.61,0-4.089,2.99-2.506,5.065
							l11.508,15.079c1.56,2.045,3.986,3.245,6.558,3.245h28.73c2.61,0,4.089-2.99,2.506-5.065l-11.508-15.079
							C288.523,170.603,286.098,169.403,283.526,169.403L283.526,169.403z"/>
					</g>
				</g>
			</g>
			<g>
				<g>
					<polygon style="fill:#FFFFFF;" points="326.129,303.245 308.791,303.245 285.807,336.721 303.145,336.721 					"/>
					<polygon style="fill:#ACC1E1;" points="326.604,303.245 321.554,303.245 298.571,336.721 303.621,336.721 					"/>
					<path style="fill:#4CC0B9;" d="M357.507,293.129h-26.978c-3.407,0-6.584,1.715-8.455,4.562l-3.648,5.554h49.197l0,0
						C367.622,297.659,363.093,293.129,357.507,293.129z"/>
					<path style="fill:#399DB0;" d="M347.525,293.129h-26.978c-3.407,0-6.584,1.715-8.455,4.562l-3.648,5.554h49.197l0,0
						C357.641,297.659,353.112,293.129,347.525,293.129z"/>
				</g>
				<path style="fill:#D1E0F4;" d="M231.76,317.197l-7.753,4.945l-39.017-61.17c-1.14-1.787-0.615-4.159,1.172-5.299l4.518-2.882
					L231.76,317.197z"/>
				
					<rect x="221.569" y="229.475" transform="matrix(0.8431 -0.5378 0.5378 0.8431 -98.5726 162.1562)" style="fill:#ACC1E1;" width="14.058" height="41.049"/>
				
					<rect x="218.686" y="234.418" transform="matrix(-0.8431 0.5378 -0.5378 -0.8431 544.1422 351.1243)" style="fill:#D1E0F4;" width="4.324" height="41.049"/>
				<path style="fill:#B6C1CE;" d="M390.902,388.831H269.37v19.156h140.689l0,0C410.058,397.408,401.482,388.831,390.902,388.831z"
					/>
				<polygon style="fill:#B6C1CE;" points="348.253,336.405 306.302,336.405 289.542,395.644 331.492,395.644 				"/>
				<polygon style="fill:#D1DAE3;" points="289.542,395.644 250.552,395.644 235.588,336.405 306.302,336.405 				"/>
				<path style="fill:#FFFFFF;" d="M449.622,372.807l-39.943-40.942c-7.437-7.623-17.637-11.922-28.287-11.922h-153.15v23.209
					c0,11.766,9.538,21.304,21.304,21.304h13.17c6.288,0,12.255-2.778,16.302-7.59l12.914-15.352h32.204
					c5.146,0,10.075,2.072,13.675,5.749l31.103,31.764c1.917,1.958,4.542,3.061,7.282,3.061h69.515
					C450.546,382.088,452.999,376.269,449.622,372.807z"/>
				<g>
					<path style="fill:#4CC0B9;" d="M244.972,249.498h-34.527l-12.522-18.911c-2.049-3.094,0.17-7.225,3.881-7.225h33.136
						c1.849,0,3.511,1.128,4.194,2.847l1.297,3.266c1.825,4.597,4.487,8.815,7.85,12.442l0,0
						C250.959,244.806,248.911,249.498,244.972,249.498z"/>
					<path style="fill:#399DB0;" d="M211.683,249.498h-2.785c-2.677,0-5.176-1.342-6.654-3.574l-7.019-10.6
						c-3.392-5.123,0.281-11.961,6.426-11.961l0,0c1.849,0,3.511,1.128,4.194,2.847l1.297,3.266
						c1.826,4.597,4.487,8.815,7.85,12.442l0,0C217.67,244.806,215.622,249.498,211.683,249.498z"/>
				</g>
				<path style="fill:#68CAC9;" d="M290.133,319.943h-62.679l-38.792-60.374c-1.991-3.099,0.234-7.174,3.918-7.174h62.679
					c4.62,0,8.922,2.349,11.419,6.236l30.779,47.902C301.178,312.326,297.019,319.943,290.133,319.943z"/>
				<path style="fill:#4CC0B9;" d="M290.133,319.943h-62.679l-38.792-60.374c-1.991-3.099,0.234-7.174,3.918-7.174h62.679
					c4.62,0,8.922,2.349,11.419,6.236l30.779,47.902C301.178,312.326,297.019,319.943,290.133,319.943z"/>
				<path style="fill:#399DB0;" d="M227.454,319.943L227.454,319.943l-38.792-60.374c-1.991-3.099,0.234-7.174,3.918-7.174l0,0
					c4.62,0,8.922,2.349,11.419,6.236l30.779,47.902C238.499,312.326,234.34,319.943,227.454,319.943z"/>
				<g>
					<path style="fill:#399DB0;" d="M383.4,376.097c-1.671,0-3.342-0.637-4.616-1.912l-31.205-31.205
						c-6.435-6.435-14.991-9.979-24.092-9.979h-95.061c-3.515,0-6.54-2.702-6.706-6.213c-0.176-3.749,2.811-6.844,6.521-6.844
						h95.245c12.589,0,24.424,4.902,33.325,13.804l31.067,31.067c2.564,2.564,2.711,6.774,0.158,9.349
						C386.76,375.452,385.08,376.097,383.4,376.097z"/>
				</g>
				<g>
					<path style="fill:#4CC0B9;" d="M441.305,376.097c1.671,0,3.342-0.637,4.616-1.912c2.55-2.55,2.55-6.683,0-9.233l-31.205-31.205
						c-8.901-8.902-20.736-13.804-33.325-13.804h-78.645h-57.904h78.645c12.589,0,24.424,4.902,33.325,13.804l31.205,31.205
						c2.55,2.55,2.55,6.683,0,9.233c-1.275,1.275-2.946,1.912-4.617,1.912H441.305z"/>
				</g>
				<path style="fill:#FFFFFF;" d="M343.246,388.831H240.869c-10.579,0-19.156,8.576-19.156,19.156l0,0h140.689l0,0
					C362.402,397.408,353.826,388.831,343.246,388.831z"/>
				<g>
					<polygon style="fill:#FFFFFF;" points="272.485,303.245 255.147,303.245 232.164,336.721 249.502,336.721 					"/>
					<polygon style="fill:#ACC1E1;" points="272.96,303.245 267.911,303.245 244.927,336.721 249.977,336.721 					"/>
					<path style="fill:#4CC0B9;" d="M303.863,293.129h-26.978c-3.407,0-6.584,1.715-8.455,4.562l-3.648,5.554h49.197l0,0
						C313.979,297.659,309.45,293.129,303.863,293.129z"/>
					<path style="fill:#399DB0;" d="M293.881,293.129h-26.978c-3.407,0-6.584,1.715-8.455,4.562l-3.649,5.554h49.197l0,0
						C303.997,297.659,299.468,293.129,293.881,293.129z"/>
				</g>
			</g>
		</g>
		<g>
			<rect x="126.67" y="294.468" style="fill:#274191;" width="38.407" height="151.86"/>
			<path style="fill:#25569F;" d="M193.06,295.445h-66.39l0,0c0,10.865,8.808,19.673,19.673,19.673h46.717V295.445z"/>
			<polygon style="fill:#25569F;" points="219.572,462.982 181.165,462.982 155.337,294.468 193.743,294.468 			"/>
			<g>
				
					<rect x="74.686" y="237.318" transform="matrix(-0.4218 0.9067 -0.9067 -0.4218 363.494 297.2008)" style="fill:#F1C292;" width="24.6" height="54.359"/>
				
					<rect x="110.415" y="223.967" transform="matrix(0.913 0.4079 -0.4079 0.913 113.102 -28.212)" style="fill:#F5D53B;" width="24.6" height="54.359"/>
				
					<rect x="110.415" y="223.967" transform="matrix(0.913 0.4079 -0.4079 0.913 113.102 -28.212)" style="fill:#F1C292;" width="24.6" height="54.359"/>
				
					<rect x="112.625" y="225.372" transform="matrix(0.913 0.4079 -0.4079 0.913 107.6552 -32.1838)" style="fill:#2870B9;" width="33.365" height="22.033"/>
				<path style="fill:#F1C292;" d="M122.975,281.031c-2.799,6.266-10.147,9.076-16.413,6.277
					c-6.266-2.799-9.076-10.147-6.277-16.413c2.799-6.266,10.147-9.076,16.413-6.277
					C122.964,267.417,125.774,274.765,122.975,281.031z"/>
				<path style="fill:#2870B9;" d="M149.033,233.134c-3.758,8.412-13.624,12.186-22.036,8.428
					c-8.412-3.758-12.186-13.624-8.428-22.036c3.758-8.412,13.624-12.186,22.036-8.428S152.79,224.722,149.033,233.134z"/>
			</g>
			<path style="fill:#2870B9;" d="M165.077,446.328h-45.795c-7.792,0-14.108,6.317-14.108,14.109l0,0c0,2.811,2.279,5.09,5.09,5.09
				h47.854c6.589,0,11.236-6.463,9.138-12.709L165.077,446.328z"/>
			<path style="fill:#2870B9;" d="M169.967,199.838h-22.963c-15.858,0-28.714,12.856-28.714,28.714v67.801h80.392v-67.801
				C198.681,212.693,185.825,199.838,169.967,199.838z"/>
			<g>
				<g>
					<path style="fill:#F1C292;" d="M176.584,254.694L176.584,254.694c-0.78,1.807,0.053,3.905,1.86,4.685l6.65,2.87
						c1.807,0.78,3.905-0.053,4.685-1.86l0,0c0.78-1.807-0.053-3.905-1.86-4.685l-6.65-2.87
						C179.462,252.053,177.365,252.886,176.584,254.694z"/>
					<path style="fill:#F1C292;" d="M185.268,255.854L185.268,255.854c-1.83,0.726-2.724,2.799-1.998,4.628l2.814,7.088
						c0.727,1.83,2.799,2.724,4.628,1.998l0,0c1.83-0.727,2.724-2.799,1.997-4.628l-2.814-7.088
						C189.17,256.022,187.098,255.128,185.268,255.854z"/>
				</g>
				<rect x="169.275" y="262.39" style="fill:#F1C292;" width="24.045" height="24.589"/>
				<g>
					<path style="fill:#F1C292;" d="M156.461,265.463L156.461,265.463c-0.001,1.715,1.387,3.106,3.102,3.107l12.649,0.01
						l0.005-6.209l-12.649-0.01C157.853,262.36,156.462,263.749,156.461,265.463z"/>
					<path style="fill:#F1C292;" d="M153.926,271.67L153.926,271.67c-0.001,1.715,1.387,3.106,3.102,3.107l15.178,0.012l0.005-6.209
						l-15.178-0.012C155.319,268.567,153.928,269.956,153.926,271.67z"/>
					<path style="fill:#F1C292;" d="M156.056,277.881L156.056,277.881c-0.001,1.715,1.387,3.106,3.102,3.107l13.043,0.011
						l0.005-6.209l-13.043-0.01C157.448,274.778,156.057,276.167,156.056,277.881z"/>
					<path style="fill:#F1C292;" d="M161.18,283.838L161.18,283.838c-0.001,1.715,1.387,3.106,3.102,3.107l7.939,0.026l0.005-6.209
						l-7.939-0.026C162.573,280.735,161.182,282.124,161.18,283.838z"/>
				</g>
				
					<line style="fill:none;stroke:#DC931D;stroke-width:1.2182;stroke-linecap:round;stroke-miterlimit:10;" x1="159.563" y1="268.57" x2="170.665" y2="268.536"/>
				
					<line style="fill:none;stroke:#DC931D;stroke-width:1.2182;stroke-linecap:round;stroke-miterlimit:10;" x1="159.581" y1="274.718" x2="170.684" y2="274.685"/>
				
					<line style="fill:none;stroke:#DC931D;stroke-width:1.2182;stroke-linecap:round;stroke-miterlimit:10;" x1="164.287" y1="280.736" x2="170.703" y2="280.716"/>
				
					<line style="fill:none;stroke:#DC931D;stroke-width:1.2182;stroke-linecap:round;stroke-miterlimit:10;" x1="172.166" y1="265.007" x2="172.169" y2="265.884"/>
				
					<line style="fill:none;stroke:#DC931D;stroke-width:1.2182;stroke-linecap:round;stroke-miterlimit:10;" x1="172.185" y1="271.211" x2="172.188" y2="272.088"/>
				
					<line style="fill:none;stroke:#DC931D;stroke-width:1.2182;stroke-linecap:round;stroke-miterlimit:10;" x1="172.204" y1="277.416" x2="172.207" y2="278.292"/>
				
					<line style="fill:none;stroke:#DC931D;stroke-width:1.2182;stroke-linecap:round;stroke-miterlimit:10;" x1="172.202" y1="283.417" x2="172.204" y2="284.294"/>
			</g>
			<g>
				<path style="fill:#F1C292;" d="M76.736,237.531L76.736,237.531c-1.83,0.727-2.724,2.799-1.998,4.628l2.814,7.088
					c0.726,1.83,2.799,2.724,4.628,1.998l0,0c1.83-0.727,2.724-2.799,1.998-4.628l-2.814-7.088
					C80.638,237.699,78.566,236.804,76.736,237.531z"/>
			</g>
			<g>
				<path style="fill:#F1C292;" d="M189.467,284.59l-11.51-14.2l42.228-34.23l15.491,19.11l-37.317,30.25
					C195.646,287.718,191.665,287.302,189.467,284.59z"/>
				
					<rect x="191.9" y="205.282" transform="matrix(0.4876 -0.8731 0.8731 0.4876 -98.3216 297.4005)" style="fill:#F5D53B;" width="24.6" height="54.359"/>
				
					<rect x="191.9" y="205.282" transform="matrix(0.4876 -0.8731 0.8731 0.4876 -98.3216 297.4005)" style="fill:#F1C292;" width="24.6" height="54.359"/>
				
					<rect x="173.406" y="213.565" transform="matrix(0.4876 -0.8731 0.8731 0.4876 -98.6721 281.0415)" style="fill:#2870B9;" width="33.365" height="22.033"/>
				<path style="fill:#F1C292;" d="M233.989,234.866c5.992,3.346,8.136,10.916,4.79,16.907c-3.346,5.992-10.916,8.136-16.907,4.79
					c-5.992-3.346-8.136-10.916-4.79-16.907C220.427,233.664,227.997,231.52,233.989,234.866z"/>
				
					<ellipse transform="matrix(0.8826 -0.4702 0.4702 0.8826 -81.8737 110.5906)" style="fill:#2870B9;" cx="180.47" cy="219.21" rx="16.683" ry="16.682"/>
			</g>
			<g>
				<path style="fill:#FFFFFF;" d="M105.174,460.437c0,2.811,2.279,5.09,5.09,5.09h47.854c3.767,0,6.896-2.114,8.496-5.09H105.174z"
					/>
			</g>
			<path style="fill:#2870B9;" d="M225.934,465.527h-51.132v-5.023c0-7.829,6.346-14.175,14.175-14.175h22.781
				c7.829,0,14.175,6.346,14.175,14.175V465.527z"/>
			<rect x="174.803" y="460.504" style="fill:#FFFFFF;" width="51.132" height="5.023"/>
			<g>
				<path style="fill:none;stroke:#C8CFD8;stroke-width:6;stroke-miterlimit:10;" d="M69.52,236.414v-23.28
					c0-5.842-1.968-11.514-5.586-16.102l-14.25-18.065"/>
				<path style="fill:#D1DAE3;" d="M72.837,465.527h-6.634c-1.84,0-3.332-1.492-3.332-3.332V316.767h13.298v145.428
					C76.169,464.035,74.677,465.527,72.837,465.527z"/>
				<path style="fill:#D1DAE3;" d="M76.169,316.767H62.871c-0.852,0-1.543-0.691-1.543-1.543v-72.368h16.383v72.368
					C77.712,316.077,77.021,316.767,76.169,316.767z"/>
				<rect x="61.329" y="242.857" style="fill:#B6C1CE;" width="16.383" height="50.698"/>
				<path style="fill:#D1DAE3;" d="M72.996,229.971h-6.951c-0.514,0-0.967,0.337-1.114,0.829l-3.602,12.057h16.383L74.109,230.8
					C73.962,230.308,73.51,229.971,72.996,229.971z"/>
				<g>
					<path style="fill:#B6C1CE;" d="M54.373,200.691c11.997,0,21.722-9.725,21.722-21.722c0-11.997-9.725-21.722-21.722-21.722
						h-4.69v43.445H54.373z"/>
					<g>
						<path style="fill:#FFFFFF;" d="M49.684,198.421c-10.726,0-19.453-8.727-19.453-19.453c0-10.726,8.727-19.453,19.453-19.453
							c10.727,0,19.453,8.727,19.453,19.453C69.137,189.695,60.41,198.421,49.684,198.421z"/>
						<g>
							<path style="fill:#C8CFD8;" d="M49.684,161.785c9.475,0,17.183,7.708,17.183,17.183c0,9.475-7.708,17.183-17.183,17.183
								S32.5,188.443,32.5,178.968C32.5,169.493,40.209,161.785,49.684,161.785 M49.684,157.246
								c-11.997,0-21.722,9.726-21.722,21.722c0,11.997,9.726,21.722,21.722,21.722c11.997,0,21.722-9.725,21.722-21.722
								C71.406,166.971,61.681,157.246,49.684,157.246L49.684,157.246z"/>
						</g>
					</g>
				</g>
				<g>
					
						<line style="fill:none;stroke:#D1DAE3;stroke-width:1.3309;stroke-linecap:round;stroke-miterlimit:10;" x1="64.229" y1="247.419" x2="74.812" y2="247.419"/>
					
						<line style="fill:none;stroke:#D1DAE3;stroke-width:1.3309;stroke-linecap:round;stroke-miterlimit:10;" x1="64.229" y1="254.348" x2="74.812" y2="254.348"/>
					
						<line style="fill:none;stroke:#D1DAE3;stroke-width:1.3309;stroke-linecap:round;stroke-miterlimit:10;" x1="64.229" y1="261.277" x2="74.812" y2="261.277"/>
					
						<line style="fill:none;stroke:#D1DAE3;stroke-width:1.3309;stroke-linecap:round;stroke-miterlimit:10;" x1="64.229" y1="268.206" x2="74.812" y2="268.206"/>
					
						<line style="fill:none;stroke:#D1DAE3;stroke-width:1.3309;stroke-linecap:round;stroke-miterlimit:10;" x1="64.229" y1="275.135" x2="74.812" y2="275.135"/>
					
						<line style="fill:none;stroke:#D1DAE3;stroke-width:1.3309;stroke-linecap:round;stroke-miterlimit:10;" x1="64.229" y1="282.065" x2="74.812" y2="282.065"/>
					
						<line style="fill:none;stroke:#D1DAE3;stroke-width:1.3309;stroke-linecap:round;stroke-miterlimit:10;" x1="64.229" y1="288.994" x2="74.812" y2="288.994"/>
				</g>
			</g>
			<g>
				<path style="fill:#F1C292;" d="M62.272,244.309h-3.306c-1.717,0-3.11,1.392-3.11,3.11l0,0c0,1.717,1.392,3.11,3.11,3.11h3.306
					c1.717,0,3.11-1.392,3.11-3.11l0,0C65.382,245.701,63.989,244.309,62.272,244.309z"/>
				<path style="fill:#F1C292;" d="M68.053,236.37L68.053,236.37c-0.78,1.808,0.053,3.905,1.86,4.685l6.65,2.87
					c1.808,0.78,3.905-0.053,4.685-1.86v0c0.78-1.807-0.053-3.905-1.86-4.685l-6.65-2.87
					C70.931,233.73,68.833,234.563,68.053,236.37z"/>
				<path style="fill:#F1C292;" d="M68.614,265.789L68.614,265.789c0.003-1.715-1.385-3.107-3.1-3.11l-6.568-0.011
					c-1.715-0.003-3.107,1.385-3.11,3.099l0,0c-0.003,1.715,1.385,3.107,3.1,3.11l6.568,0.011
					C67.219,268.891,68.611,267.503,68.614,265.789z"/>
				<path style="fill:#F1C292;" d="M70.676,259.583L70.676,259.583c0.003-1.715-1.385-3.107-3.1-3.11l-8.62-0.014
					c-1.715-0.003-3.107,1.385-3.11,3.1l0,0c-0.003,1.715,1.385,3.107,3.099,3.11l8.62,0.014
					C69.281,262.685,70.673,261.298,70.676,259.583z"/>
				<path style="fill:#F1C292;" d="M68.954,253.371L68.954,253.371c0.003-1.715-1.385-3.107-3.1-3.11l-6.889-0.011
					c-1.715-0.003-3.107,1.385-3.11,3.1l0,0c-0.003,1.715,1.385,3.107,3.1,3.11l6.889,0.011
					C67.559,256.473,68.952,255.086,68.954,253.371z"/>
				
					<line style="fill:none;stroke:#DC931D;stroke-width:1.2182;stroke-linecap:round;stroke-miterlimit:10;" x1="66.57" y1="262.684" x2="57.387" y2="262.708"/>
				
					<line style="fill:none;stroke:#DC931D;stroke-width:1.2182;stroke-linecap:round;stroke-miterlimit:10;" x1="66.827" y1="256.535" x2="57.374" y2="256.56"/>
				
					<line style="fill:none;stroke:#DC931D;stroke-width:1.2182;stroke-linecap:round;stroke-miterlimit:10;" x1="63.775" y1="250.514" x2="57.36" y2="250.528"/>
			</g>
			<polygon style="fill:#F1C292;" points="167.059,187.241 148.638,187.241 148.638,199.838 148.638,220.878 167.059,199.838 			"/>
			<path style="fill:#F1C292;" d="M157.848,193.917L157.848,193.917c-7.639,0-13.833-6.193-13.833-13.833v-7.56
				c0-7.639,6.193-13.833,13.833-13.833l0,0c7.64,0,13.833,6.193,13.833,13.833v7.56
				C171.681,187.724,165.488,193.917,157.848,193.917z"/>
			<path style="fill:#FFFFFF;" d="M154.605,185.189L154.605,185.189c-3.422,0-6.196-2.774-6.196-6.196l0,0
				c0-1.485,1.204-2.689,2.689-2.689h7.014c1.485,0,2.689,1.204,2.689,2.689l0,0C160.801,182.415,158.027,185.189,154.605,185.189z"
				/>
			<path style="fill:#274191;" d="M171.681,174.646h-3.838c-1.977,0-3.58-1.603-3.58-3.58v-9.572h3.504
				c2.162,0,3.914,1.752,3.914,3.914V174.646z"/>
			<circle style="fill:#F1C292;" cx="169.395" cy="174.646" r="3.841"/>
			
				<path style="fill:none;stroke:#274191;stroke-width:6.4845;stroke-linecap:round;stroke-linejoin:round;stroke-miterlimit:10;" d="
				M164.263,161.495L164.263,161.495c-2.501-2.501-6.497-2.684-9.215-0.421l-4.868,4.052c-2.139,1.78-5.143,2.088-7.598,0.778
				l-3.786-2.02"/>
			
				<path style="fill:none;stroke:#274191;stroke-width:6.4845;stroke-linecap:round;stroke-linejoin:round;stroke-miterlimit:10;" d="
				M164.263,161.495l-1.671-1.695c-1.865-1.891-4.79-2.241-7.049-0.844l-2.034,1.258c-3.347,2.07-7.735,0.202-8.562-3.646l0,0"/>
		</g>
		<path style="fill:#FFFFFF;" d="M243.97,117.29c1.147-6.247-1.515-12.697-6.943-15.995c-2.34-1.422-5.086-2.24-8.024-2.24
			c-3.329,0-6.411,1.052-8.934,2.841c-2.249,1.594-5.273,1.594-7.522,0c-2.523-1.789-5.605-2.841-8.934-2.841
			c-2.938,0-5.685,0.819-8.024,2.24c-5.428,3.298-8.091,9.748-6.943,15.995l1.516,8.254c1.673,9.107,5.662,17.63,11.584,24.748
			l1.985,2.387c1.162,1.397,2.886,2.205,4.703,2.205h0c1.381,0,2.53-1.059,2.643-2.435l1.034-12.579
			c0.18-2.184,2.005-3.866,4.197-3.866l0,0c2.192,0,4.017,1.681,4.197,3.866l1.034,12.579c0.113,1.376,1.263,2.435,2.643,2.435l0,0
			c1.817,0,3.541-0.808,4.703-2.205l1.985-2.387c5.922-7.118,9.911-15.641,11.584-24.748L243.97,117.29z"/>
	</g>
</g>
</svg>
