<svg version="1.2" xmlns="http://www.w3.org/2000/svg" viewBox="0 0 500 500" width="500" height="500"><style>.a{fill:#ebebeb}.b{fill:#fff}.c{fill:#c7c7c7}.d{fill:#dbdbdb}.e{opacity:.5;fill:#ebebeb}.f{fill:#a6a6a6}.g{fill:#263238}.h{fill:#789ac0}.i{opacity:.1;fill:#263238}.j{opacity:.1;fill:#789ac0}.k{fill:#455a64}.l{fill:#f7a9a0}.m{opacity:.4}.n{fill:#37474f}.o{fill:#ff9cbd}.p{fill:#dd6a57}.q{fill:#ffc727}.r{opacity:.1}.s{fill:#ad6359}.t{fill:#eb9481}</style><path class="a" d="m33.4 46.8h142.1v308.9h-142.1z"/><path class="b" d="m45.6 60.2h117.8v200.7h-117.8z"/><path class="a" d="m53.1 382.8h-9.4v-27.1h16.7z"/><path class="c" d="m60.4 355.7l-2.7 10h-14v-10z"/><path class="a" d="m155.8 382.8h9.4v-27.1h-16.7z"/><path class="c" d="m148.5 355.7l2.7 10h14v-10z"/><path class="c" d="m163.4 283.1q-13.3 0.3-26.5 0.4c-8.8 0.1-17.7 0.1-26.5 0.1l0.5-0.5q0 6.7 0 13.3l-0.1 13.3c-0.1 8.9-0.2 17.8-0.4 26.7-0.2-8.9-0.3-17.8-0.4-26.7v-13.3q-0.1-6.6-0.1-13.3v-0.5h0.5c8.8 0.1 17.7 0.1 26.5 0.2q13.2 0.1 26.5 0.3z"/><path class="c" d="m110.4 344q13.3-0.3 26.5-0.4c8.8-0.1 17.6-0.1 26.5-0.1l-0.5 0.5c-0.1-4.4 0-8.7 0-13.1l0.1-13.1c0-8.7 0.1-17.4 0.4-26.1 0.2 8.7 0.3 17.4 0.4 26.1v13.1c0 4.4 0.1 8.7 0 13.1v0.5h-0.4c-8.9-0.1-17.7-0.1-26.5-0.2q-13.2-0.1-26.5-0.3z"/><path class="c" d="m120.4 320.3h-4v-15.4h4z"/><path class="c" d="m45.6 283.1q13.2-0.2 26.4-0.3c8.9-0.1 17.7-0.1 26.5-0.2h0.5v0.5q0 6.7 0 13.3l-0.1 13.3c-0.1 8.9-0.2 17.8-0.4 26.7-0.2-8.9-0.3-17.8-0.4-26.7l-0.1-13.3q0-6.6 0-13.3l0.5 0.5c-8.8 0-17.6 0-26.5-0.1q-13.2-0.1-26.4-0.4z"/><path class="c" d="m98.5 344q-13.2 0.2-26.5 0.3c-8.8 0.1-17.6 0.1-26.4 0.2h-0.5v-0.5c0-4.4 0-8.7 0-13.1l0.1-13.1c0.1-8.7 0.1-17.4 0.4-26.1 0.2 8.7 0.3 17.4 0.4 26.1v13.1c0 4.4 0.1 8.7 0.1 13.1l-0.5-0.5c8.8 0 17.6 0 26.4 0.1q13.3 0.1 26.5 0.4z"/><path class="c" d="m88.6 304.9h4v15.4h-4z"/><path class="c" d="m45.6 114.7h117.8v1.8h-117.8z"/><path class="c" d="m45.6 161.8h117.8v1.8h-117.8z"/><path class="c" d="m45.6 208.8h117.8v1.9h-117.8z"/><path class="a" d="m103.1 60.2h2.7v200.7h-2.7z"/><path class="a" d="m122.4 161.8h-14v-23.2h14z"/><path class="d" d="m124.3 138.6h-17.8v-4h17.8z"/><path class="c" d="m120.6 158h-10.4v-14.3h10.4z"/><path class="a" d="m141.2 161.8h-13.9v-23.2h13.9z"/><path class="d" d="m143.1 138.6h-17.8v-4h17.8z"/><path class="c" d="m139.4 158h-10.4v-14.3h10.4z"/><path class="a" d="m160 161.8h-13.9v-23.2h13.9z"/><path class="d" d="m161.9 138.6h-17.8v-4h17.8z"/><path class="c" d="m158.2 158h-10.3v-14.3h10.3z"/><path class="a" d="m48 208.8h18.5v-19.7c0-3-2.4-5.3-5.3-5.3h-7.9c-2.9 0-5.3 2.3-5.3 5.3z"/><path class="a" d="m62.6 183.8h-10.7v-2.5h10.7z"/><path class="d" d="m65.3 181.3h-16.1v-2.8h16.1z"/><path class="c" d="m66.5 203.4h-15.5v-13.6h15.5z"/><path class="a" d="m68.7 208.8h18.5v-19.7c0-3-2.4-5.3-5.3-5.3h-7.9c-2.9 0-5.3 2.3-5.3 5.3z"/><path class="a" d="m83.3 183.8h-10.7v-2.5h10.7z"/><path class="d" d="m86 181.3h-16.2v-2.8h16.2z"/><path class="c" d="m87.2 203.4h-15.6v-13.6h15.6z"/><path class="a" d="m130.8 260.9h-23.2v-29.9h23.2z"/><path class="a" d="m107.6 230.9h23.2l-4.4-6.1h-14.3z"/><path class="c" d="m129 224.8h-19.6v-5.9h19.6z"/><path class="d" d="m130.8 251.1h-19.9v-13.5h19.9z"/><path class="a" d="m155.7 260.9h-23.1v-29.9h23.1z"/><path class="a" d="m132.6 230.9h23.1l-4.4-6.1h-14.3z"/><path class="c" d="m153.9 224.8h-19.5v-5.9h19.5z"/><path class="d" d="m155.7 251.1h-19.8v-13.5h19.8z"/><path class="d" d="m95 114.7h-41.5c-2.4 0-4.3-1.9-4.3-4.3 0-2.4 1.9-4.3 4.3-4.3h41.5c2.4 0 4.4 1.9 4.4 4.3 0 2.4-2 4.3-4.4 4.3z"/><path class="d" d="m95 105.5h-41.5c-2.4 0-4.3-1.9-4.3-4.3 0-2.4 1.9-4.3 4.3-4.3h41.5c2.4 0 4.4 1.9 4.4 4.3 0 2.4-2 4.3-4.4 4.3z"/><path class="a" d="m94.3 96.3h-40.1c-1.7 0-3.1-1.4-3.1-3.1 0-1.7 1.4-3.1 3.1-3.1h40.1c1.7 0 3.1 1.4 3.1 3.1 0 1.7-1.4 3.1-3.1 3.1z"/><path class="a" d="m94.3 89.5h-40.1c-1.7 0-3.1-1.4-3.1-3.1 0-1.7 1.4-3.1 3.1-3.1h40.1c1.7 0 3.1 1.4 3.1 3.1 0 1.7-1.4 3.1-3.1 3.1z"/><path class="a" d="m445.7 86.2c-5.1 16-22.1 24.8-38 19.7-15.9-5.1-24.7-22-19.7-38 5.1-15.9 22-24.7 38-19.7 15.9 5.1 24.7 22.1 19.7 38z"/><path class="d" d="m433.3 102.4c-13.7 8.3-31.4 4-39.7-9.6-8.3-13.7-4-31.4 9.6-39.7 13.6-8.3 31.3-4 39.7 9.6 8.3 13.6 4 31.4-9.6 39.7z"/><path class="b" d="m432.3 100.8c-12.8 7.8-29.4 3.8-37.2-9-7.8-12.7-3.7-29.4 9-37.1 12.8-7.8 29.4-3.8 37.2 8.9 7.8 12.8 3.8 29.4-9 37.2z"/><path class="e" d="m444.6 72c-12.3 7.5-32.5 19.7-43.8 26.4-3.2-2.7-5.7-6.1-7.4-9.9l37.4-34.7c7 3.7 12.1 10.3 13.8 18.2z"/><path class="e" d="m445.2 78.7c-0.1 3.1-0.7 6-1.8 8.8l-33.7 15.9q-2.2-0.7-4.2-1.8c10.2-5.9 28.8-16.6 39.7-22.9z"/><path class="c" d="m418 52.7h0.5v4.1h-0.5z"/><path class="c" d="m405.4 56.1l0.5-0.2 2 3.5-0.4 0.3z"/><path class="c" d="m396.4 65.4l0.2-0.4 3.6 2-0.3 0.5z"/><path class="c" d="m393.1 77.5h4.1v0.5h-4.1z"/><path class="c" d="m396.4 90l3.5-2 0.3 0.4-3.6 2.1z"/><path class="c" d="m405.5 99.3l2-3.5 0.5 0.2-2.1 3.6z"/><path class="c" d="m418 98.7h0.5v4.1h-0.5z"/><path class="c" d="m428.5 96l0.4-0.2 2.1 3.5-0.5 0.3z"/><path class="c" d="m436.3 88.4l0.2-0.4 3.6 2-0.3 0.5z"/><path class="c" d="m439.2 77.5h4.1v0.5h-4.1z"/><path class="c" d="m436.2 67l3.6-2.1 0.2 0.5-3.5 2z"/><path class="c" d="m428.5 59.4l2-3.5 0.5 0.3-2.1 3.5z"/><path class="c" d="m418.6 54.5l0.9 25.1-2.6-0.1 1-25z"/><path class="f" d="m434.2 69l-16.8 10.8-1.3-2.3 17.8-9.1z"/><path class="c" d="m419.1 77.7c0 0.5-0.4 0.9-0.9 0.9-0.5 0-0.9-0.4-0.9-0.9 0-0.5 0.4-0.8 0.9-0.8 0.5 0 0.9 0.3 0.9 0.8z"/><path class="a" d="m250 474.9c-117.2 0-212-10.1-212-22.6 0-12.5 94.8-22.6 212-22.6 117.2 0 212 10.1 212 22.6 0 12.5-94.8 22.6-212 22.6z"/><path class="g" d="m33.4 382.8l54.1-0.2 54.2-0.1 108.3-0.2 108.3 0.2h54.1l54.2 0.3-54.2 0.2-54.1 0.1-108.3 0.2-108.3-0.2-54.2-0.1z"/><path class="h" d="m305.7 72c-11.3 15-24.8 21.5-24.8 21.5 0 0-13.5-6.5-24.8-21.5-8.7-11.5-8.3-29.6 4.2-33.5 13.8-4.3 20.6 16.5 20.6 16.5 0 0 6.9-20.9 20.6-16.5 12.4 4.1 12.9 22 4.2 33.5z"/><path class="b" d="m271.1 84.4l-3.7-15.6-2.5 5.5h-15.2v-1.8h14.1l4.1-9.2 2.9 12.2 4.2-25.3 3.6 20 2.9-8.4 4.6 13.7 1-3h24.9v1.8h-23.6l-2.3 6.8-4.6-13.8-3.4 9.8-3-16.6z"/><path class="h" d="m428.7 323.9c0 0 15.9-3.6 24.6-11.6 8.7-8 13.5-22.4 13.5-22.4 0 0-9.3 1.7-17.8 4.7-1.4 1.5-4.1 4.6-5.4 7.6 0 0-0.2-3.1 0-5.4-2.3 1-4.3 2.2-5.7 3.4-7.2 6.3-9.2 23.7-9.2 23.7z"/><path class="g" d="m456.9 296.9c2.2-1.5 4.4-3 6.6-4.5 0.1-0.1 0-0.3-0.2-0.2-4.1 2.5-8.1 5.1-12 7.8q-2.1 1.5-4 3 0.1-0.3 0.2-0.5 0.8-1.2 1.5-2.4c1-1.5 2.1-3.1 3.4-4.5 0 0 0-0.1-0.1 0-1.2 1.4-2.5 2.8-3.6 4.3q-0.8 1.1-1.5 2.2-0.4 0.6-0.7 1.2-0.1 0.2-0.2 0.5-3.1 2.4-6 5-1.8 1.7-3.4 3.4c0.6-1.9 1.1-3.8 1.8-5.7 0.1-0.1 0-0.1-0.1 0-0.7 1.9-1.4 3.9-2 6q-1.8 1.9-3.4 4.1 0-0.2 0-0.3 0.3-1.1 0.6-2.2 0.6-2.2 1.3-4.3c1-2.9 2.3-5.7 4.3-8.1 0 0-0.1-0.1-0.1 0-3.1 3.6-4.9 8-6.1 12.7q-0.3 1-0.5 2-0.1 0.5-0.2 1.1-0.8 1-1.4 2c-2.8 4.1-4.9 8.6-6.8 13.2-2 5.1-3.6 10.5-5.1 15.8 0 0.2 0.2 0.2 0.2 0.1 3.1-9.3 6.3-18.7 11.6-27.1q1.7-2.6 3.6-5c2.7-0.2 5.3-0.7 7.8-1.6q4.1-1.4 7.7-3.7c1.4-0.9 2.7-2 4-3 0-0.1 0-0.1-0.1-0.1-2.1 1.8-4.7 3.2-7.3 4.4-2.5 1.2-5.2 2.1-8 2.7q-1.7 0.4-3.5 0.6 2.2-2.7 4.6-5.2 0.9-0.8 1.7-1.6c1.8-1.3 3.8-2.3 5.9-3.3 2.6-1.3 5.1-2.6 7.7-3.9 1.5-0.8 2.9-1.5 4.4-2.2 0-0.1 0-0.2-0.1-0.1-2.6 1.2-5.2 2.4-7.9 3.6-2.5 1.2-5 2.3-7.4 3.6q-0.1 0.1-0.3 0.2 3.3-2.8 6.7-5.4 3.2-2.4 6.4-4.6z"/><path class="g" d="m456 305.1c-1.3 0.5-2.6 1-3.9 1.6-1.3 0.7-2.5 1.4-3.8 2.1 0 0.1 0 0.1 0.1 0.1 1.2-0.6 2.5-1.2 3.8-1.8 1.3-0.6 2.5-1.3 3.8-1.9 0.1 0 0.1-0.1 0-0.1z"/><path class="h" d="m377 243.8c0 0 4.5 5.1 4.8 13.2 0 1.5-0.2 3.4-0.4 5.8 6 3.1 10.4 8.8 10.4 8.8-3.4-2-8-2.8-10.5-2.5 0.1 1.6 0.3 3.2 0.6 4.8 1.1-0.1 3.3 0.1 6.8 1.3 0 0-3.5-0.1-6.1 1.2 2.8 9 11.3 18.3 34.5 22.2 0 0 4.5-15.8-4.1-32.7-7-13.7-36-22.1-36-22.1z"/><path class="g" d="m425.2 337.2q-0.6-5.8-1.5-11.5c-1.2-7.7-2.8-15.3-4.7-22.8q-1.4-5.3-3.4-10.4c0.1-0.6 0.1-1.2 0.1-1.8q0-1.1 0-2.2 0-2.3-0.2-4.5c-0.3-2.9-0.7-5.9-1.4-8.7-0.5-1.7-1-3.3-1.4-5-0.1 0-0.2 0-0.1 0.1 0.8 2.8 1.3 5.8 1.7 8.7q0.6 4.3 0.8 8.7 0 1.2 0 2.4 0 0.5 0 1-1.7-4.1-3.9-8.1c-2.4-4.1-5.1-8.1-8-11.9 0-0.4-0.1-0.9-0.2-1.3q-0.2-0.8-0.3-1.5-0.4-1.6-0.8-3.2c-0.6-2.1-1.4-4.2-2-6.2-0.1-0.1-0.2-0.1-0.1 0 0.6 2.1 1 4.2 1.5 6.3q0.3 1.5 0.6 3.1 0.2 0.8 0.4 1.6 0 0 0 0.1-1.4-1.8-2.9-3.5c-4.4-5.2-9.3-10-14.2-14.8q-0.9-0.9-1.8-1.8c-0.1 0-0.1 0.1-0.1 0.1 4.7 4.9 9.3 9.9 13.7 15q1.5 1.9 3 3.8-0.8-0.6-1.6-1.1-2-1.3-4.1-2.5-2.1-1.2-4.3-2.3c-1.5-0.7-3.1-1.4-4.5-2.2-0.1 0-0.1 0.1 0 0.1 1.4 0.6 2.8 1.5 4.2 2.4q2.1 1.2 4.2 2.5 2.1 1.3 4.1 2.6c1.1 0.8 2.3 1.6 3.4 2.2 2.7 3.5 5.2 7.1 7.5 10.9q2.1 3.6 3.8 7.3-0.4-0.2-0.8-0.4-1.1-0.4-2.1-0.9-2.1-0.9-4.1-1.8c-2.7-1.1-5.3-2.2-7.9-3.4-1.4-0.7-2.8-1.5-4.1-2.4-0.1 0-0.1 0.1-0.1 0.1 4.8 3.3 10.1 5.6 15.4 8l2.3 1c0.6 0.3 1.2 0.6 1.9 0.8q2.3 5.3 3.9 10.8c2.1 7.4 3.8 14.9 5.1 22.5 1.3 7.6 2.2 15.2 2.9 22.9q0.1 1.5 0.3 2.9c0 0.4 0.6 0.4 0.6 0 0-3.9-0.4-7.8-0.8-11.7z"/><path class="g" d="m411 273c-0.4-2.4-1-4.7-1.7-7 0-0.1-0.1 0-0.1 0 0.6 2.3 1 4.6 1.5 6.9q0.6 3.5 1.1 7.1c0 0 0.1 0 0.1 0q-0.3-3.5-0.9-7z"/><path class="g" d="m401 279.4c-1.6-1.1-3.4-2-5.1-2.9q-1.2-0.6-2.5-1.2c-0.9-0.4-1.8-0.8-2.7-1.2-0.1-0.1-0.1 0-0.1 0 0.9 0.5 1.7 1 2.5 1.4q1.3 0.8 2.6 1.5c1.7 0.9 3.4 1.9 5.2 2.6 0.1 0.1 0.2-0.1 0.1-0.2z"/><path class="i" d="m429 296.4c0 0 14.7-3.5 21.4-13.4 6.5-9.4 8.5-25.5 8.7-26.9-0.3 1.3-3.3 15.4-13.3 21.9-7.7 5-15.1 9.1-16.8 18.4z"/><path class="g" d="m442.5 271c-2.6 2.5-4.5 5.4-5.4 8.9 0 0.1 0 0.1 0 0 1.2-3.2 3-6.4 5.5-8.8 0-0.1 0-0.2-0.1-0.1z"/><path class="h" d="m429 298.4c0 0 14.7-3.5 21.4-13.4 6.5-9.4 8.5-25.5 8.7-26.9q0-0.1 0-0.1c0 0-7 10.1-14.4 12.6-7.5 2.6-17.9 11.4-15.7 27.8z"/><path class="g" d="m456.5 261.6c-1.3 2.6-2.8 5.3-4.5 7.7-1.7 2.4-3.8 4.4-6.1 6.3-2 1.5-4.1 3-6.1 4.5q0 0 0 0 0.6-0.9 1.2-1.7c0.9-1.1 1.8-2.1 2.7-3.1 1.9-2 3.7-3.9 5.4-6.1q1.3-1.7 2.3-3.8c0 0-0.1 0-0.1 0-2.4 5-7.1 8.2-10.5 12.4q-0.8 0.9-1.4 1.8c-0.3 0.5-0.6 1-0.8 1.5-1.9 1.5-3.6 3.2-5.1 5.1q0.2-1.5 0.6-2.9c0.4-1.3 0.9-2.5 1.6-3.7 0-0.1-0.1-0.1-0.1-0.1-0.7 1.2-1.3 2.5-1.7 3.7-0.3 1.1-0.5 2.1-0.5 3.2q0 0-0.1 0-1 1.5-1.9 3.1 0.1-0.4 0.1-0.9 0.5-2.2 1-4.4c0.8-2.9 1.9-5.8 3.6-8.3 0 0-0.1-0.1-0.1 0-1.7 2.4-3 5.2-3.9 8.1q-0.7 2.1-1.2 4.4-0.2 1-0.5 2.1-0.1 0.6-0.2 1.2c-1.5 3.2-2.5 6.6-3.4 10-1.5 6.1-2.4 12.3-3.1 18.6-0.7 6.5-1.1 13.1-1 19.7q0 1.2 0.1 2.5c0 0.2 0.3 0.2 0.3 0 0.2-3.3 0.3-6.5 0.5-9.8q0.3-4.9 0.8-9.8c0.7-6.3 1.7-12.7 3.1-19 1.1-5.4 2.7-10.8 5.6-15.5q2.2-3.5 5.3-6.3c2.1-1.8 4.4-3.5 6.5-5.2 2.2-1.7 4.3-3.5 6-5.7 1.8-2.3 3.3-5 4.7-7.6q0.5-1 1-2c0 0 0-0.1-0.1 0z"/><path class="g" d="m454 263.7c-1 2-2.1 3.9-3.3 5.7 0 0.1 0 0.1 0.1 0.1 1.3-1.8 2.3-3.8 3.3-5.8 0 0-0.1 0-0.1 0z"/><path class="h" d="m375 289.9c0 0-0.3 20.9 12.2 26.9 12.5 6.1 19.2 1 27.7 3.1q0 0 0-0.1c-0.3-0.5-6.4-9.2-16-11.6-9.9-2.4-20.9-9.6-23.9-18.3z"/><path class="j" d="m375 289.9c0 0-0.3 20.9 12.2 26.9 12.5 6.1 19.2 1 27.7 3.1q0 0 0-0.1c-0.3-0.1-6.5-3.2-14.2-4.1-7.9-1-22.9-6.1-25.7-25.8z"/><path class="g" d="m415.8 320.2c-1.5-1.3-3.2-2.5-5-3.3q-0.4-0.2-0.8-0.4-0.2-0.2-0.4-0.5-0.6-0.6-1.2-1.1-1.2-1-2.5-1.8c-2.1-1.2-4.4-2.1-6.5-3.2-0.1 0-0.1 0.1 0 0.1 1 0.5 2 1.1 3 1.7 1 0.6 2 1.2 3 1.8q1.3 0.8 2.5 1.8 0.3 0.3 0.6 0.7-2.1-0.7-4.2-1.2c-2.3-0.4-4.6-0.8-6.9-1.2q-1.7-0.4-3.3-0.9c-1-0.9-2.1-1.7-3.1-2.6q-1.8-1.6-3.2-3.6c0 0-0.1 0-0.1 0.1 1.6 2 3.2 4 5.1 5.6q-0.8-0.3-1.6-0.6c-4.2-2-8-5-10.6-8.9-0.1-0.1-0.1 0-0.1 0.1 2.3 3.3 5.2 6.1 8.6 8.2q2.6 1.6 5.5 2.6c2.2 0.7 4.4 1.2 6.7 1.6 2.2 0.4 4.5 0.8 6.6 1.6 2 0.7 3.9 1.6 5.6 2.9 3.2 2.4 5.7 5.7 7.5 9.3 2.3 4.7 3.5 10 4.1 15.3 0 0.2 0.4 0.2 0.4 0-0.6-8.8-3-18-9.7-24.1z"/><path class="g" d="m401.3 313.4c-0.7-1-1.6-1.7-2.6-2.3-1.2-0.7-2.3-1.4-3.1-2.5 0-0.1-0.1 0-0.1 0q1.2 1.5 2.7 2.4c1.1 0.7 2.2 1.4 3 2.5 0 0 0.1 0 0.1-0.1z"/><path class="k" d="m407.9 335.7l0.6 11.4 1.7 35.2h26.2l1.8-35.2 0.5-11.4z"/><path class="g" d="m407.9 335.7l0.6 11.4h29.7l0.5-11.4z"/><path class="k" d="m440.6 341.8h-34.6v-10.9h34.6z"/><path class="l" d="m428.7 440.7c-2.4 0.8-68.9 0.6-71.4-1-1-0.6-1.5-10.3-1.8-22-0.1-2.6-0.2-43.4-0.2-43.4h43.3l-0.3 43.4c0 0 25.5 11.5 28.1 13.5 2.5 2.1 4.6 8.8 2.3 9.5z"/><path class="h" d="m355.6 422.8c0.3 9.3 0.9 16.4 1.7 16.9 2.5 1.6 69 1.8 71.4 1 2.3-0.7 0.2-7.4-2.3-9.5-1.5-1.1-9.8-5.1-17-8.4 2.5 1.5 5.7 3.7 5.4 5.1-0.5 2.5-33.6 4.2-59.2-5.1z"/><path class="m" d="m355.6 422.8c0.3 9.3 0.9 16.4 1.7 16.9 2.5 1.6 69 1.8 71.4 1 2.3-0.7 0.2-7.4-2.3-9.5-1.5-1.1-9.8-5.1-17-8.4 2.5 1.5 5.7 3.7 5.4 5.1-0.5 2.5-33.6 4.2-59.2-5.1z"/><path class="n" d="m339.4 189.8c0 0 11.7 115.7 12 117.2 0 0.2 0.1 2.4 0.2 6 0.6 20 1.3 88 1.3 88h47.8c0 0-2.3-79.5-4.1-96.7-2.2-21.9-16.7-114.5-16.7-114.5 0 0-40.5 0-40.5 0z"/><path class="g" d="m357.1 311.1c-1.5-25.1-3.7-50.1-6.7-75.1-1.7-14.1-3.7-28.1-5.7-42.1 0-0.1-0.2-0.1-0.2 0 3.7 25 6.3 50.1 8.6 75.2 0.8 8.9 2.3 24.2 3.1 42 1.5 32.6 2.1 71.5 2.4 80.7 0 0.4 0.5 0.3 0.5 0-0.7-25.4-0.5-55.3-2-80.7z"/><path class="g" d="m397.4 393c-21.7-0.6-40.6-0.2-42.2 0-1.4 0.1-0.6 0.2 0.1 0.3 18.4 1.1 41.4 0 42.1-0.1 0.2 0 0.1-0.2 0-0.2z"/><path class="g" d="m339.4 189.8c0 0 11.7 115.7 12 117.2 0 0.2 0.1 2.4 0.2 6l22.5-123.2z"/><path class="l" d="m353.2 446.5c-2.4 0.4-69.5-9.9-71.7-11.9-0.9-0.7 11-64.2 11-64.2l43.8 6.5-8.1 43.4c0 0 21.9 14 24.1 16.4 2.3 2.5 3.3 9.4 0.9 9.8z"/><path class="h" d="m281.5 434.6c2.2 2 69.3 12.3 71.7 11.9 2.4-0.4 1.4-7.3-0.9-9.7-1.3-1.5-9.1-6.7-15.5-10.9 2.2 1.9 5.4 4.9 4.9 6.3-1 2.4-34.1-1.5-57.7-15-1.7 9.8-2.8 17.2-2.5 17.4z"/><path class="m" d="m281.5 434.6c2.2 2 69.3 12.3 71.7 11.9 2.4-0.4 1.4-7.3-0.9-9.7-1.3-1.5-9.1-6.7-15.5-10.9 2.2 1.9 5.4 4.9 4.9 6.3-1 2.4-34.1-1.5-57.7-15-1.7 9.8-2.8 17.2-2.5 17.4z"/><path class="n" d="m379.9 189.8c0 0-1.4 11.7-8.2 20.2-1.6 2.1-6.6 4-9.1 5.8 0 0-9.6 88.3-12.6 98.3-3.2 11.1-15.9 87.1-15.9 87.1l-49.2-6.8c0 0 14.3-71.3 17.8-89.7 0.8-4.2 11.5-81.9 11.3-83.6-2.9-21.4 7.5-31.3 7.5-31.3 0 0 58.4 0 58.4 0z"/><path class="g" d="m342.3 190.6c-0.9 4.2-3.2 7.9-5.9 10.6-3.2 3-7 5-10.9 5.4-0.6 0.1-0.5 0.5 0.2 0.5 7.7 0 15.7-6.3 16.9-16.4 0-0.3-0.3-0.3-0.3-0.1z"/><path class="g" d="m372.6 209.7c-2.8 1-5.4 2.7-8 4.3-2.7 1.6-5.1 3.5-7.7 5.3-0.1 0.1 0 0.3 0.1 0.2 2.7-1.6 5.5-2.9 8.2-4.5 2.6-1.6 5.3-3.1 7.6-5.1 0.1-0.1 0-0.3-0.2-0.2z"/><path class="g" d="m373.7 193.5c-0.4 1.7-0.9 3.5-1.4 5.3-0.4 1.6-0.7 3.3-1.3 5-0.5 1.6-1.2 3-2.5 4.1-0.7 0.6-1.4 1.1-2.2 1.6q-0.6 0.4-1.2 0.9 0.1-0.4 0.2-0.8 0.2-1 0.4-2 0.5-2.3 0.9-4.5c0.6-3 1.2-6 2-8.9 0-0.1-0.2-0.2-0.2-0.1-0.9 2.9-1.9 5.8-2.6 8.7-0.4 1.5-1.9 8.6-2 9.1q-0.1 0.7-0.1 1.5c-0.1 0.5-0.2 1.1-0.1 1.6 0 0.2 0.2 0.1 0.2 0.1q0 0 0 0c0.3-0.5 0.4-1.1 0.6-1.6q0.2-0.7 0.4-1.5 0-0.3 0.1-0.6c0.7-0.4 1.4-0.9 2.1-1.3 0.7-0.5 1.4-1 2.1-1.5 1.4-1.1 2.2-2.3 2.8-3.9 0.6-1.7 0.8-3.4 1.1-5.1 0.3-2 0.5-4.1 0.9-6.1 0-0.1-0.1-0.2-0.2 0z"/><path class="g" d="m331.8 391.4c-21.5-3.7-40.2-5.8-41.8-5.9-1.4-0.1-0.6 0.2 0 0.3 18.2 3.7 41.1 5.8 41.8 5.8 0.1 0 0.1-0.1 0-0.2z"/><path class="g" d="m299.7 342.7c2.8-12.3 5.4-24.7 7.5-37.2 2.1-12.5 3.7-24.9 5.4-37.5q2.4-18.9 4.8-37.8c0.4-3 1-6.2 0.9-9.3-0.2-3-1.2-5.9-1.5-8.9-0.5-5.9 0.6-11.8 2.5-17.3q0.7-2.1 1.6-4.1c0.1-0.2 0.4-0.1 0.3 0.1-1.9 5.7-3.6 11.6-3.7 17.6 0 3.2 0.5 6.1 1.2 9.2 0.6 3 0.5 5.8 0.1 8.8-1.5 12.6-3.2 25.1-4.8 37.7-1.6 12.5-3.2 25-5.2 37.4-2 12.5-4.3 24.8-7.1 37-2.8 12.4-5.7 24.7-8.8 37q-0.6 2.3-1.2 4.6c0 0.2-0.3 0.1-0.2-0.1 2.4-12.4 5.4-24.8 8.2-37.2z"/><path class="g" d="m367.9 82.6c-3.7-4.6-10.1-5.7-16.3-4.4-6.2 1.3-13.6 4.5-14.2 15.2-0.6 8.7 2 17.2 2 27 0 9.7-10.5 33.3 6.5 44.9 15.3 10.4 46.1 1 47-20.4 0.8-16.9-18.6-32.6-20.7-39.3-2.1-6.7-0.2-18-4.3-23z"/><path class="g" d="m370.7 92.1c0.2 4.9 0.8 9.8 2.8 14.4 0.5 1.1 1.1 2.2 1.9 3.2 0.8 1 1.6 1.9 2.4 2.8 1.6 1.8 3.2 3.6 4.7 5.5 3 3.7 5.6 7.8 7.5 12.2 1.8 4.4 2.8 9.2 3 14 0.2-2.4 0.1-4.8-0.3-7.3-0.3-2.4-1-4.8-1.8-7.1-1.6-4.6-4.3-8.8-7.4-12.6-1.5-1.9-3.2-3.7-4.8-5.5-1.6-1.8-3.2-3.6-4.3-5.7-1-2.1-1.7-4.4-2.3-6.7-0.6-2.4-1-4.7-1.4-7.2z"/><path class="g" d="m337.8 100.8c0.1 4.9 0.4 9.8 0.3 14.7-0.1 2.5-0.2 4.9-0.6 7.3-0.3 2.4-1 4.8-1.5 7.2-0.6 2.4-1.1 4.8-1.5 7.3-0.3 2.5-0.5 5-0.4 7.5 0.1 2.5 0.5 5 1.3 7.4 0.9 2.3 2.3 4.5 4 6.2-1.5-1.9-2.7-4.1-3.4-6.4-0.6-2.4-0.9-4.8-0.9-7.2 0.1-4.9 1-9.7 2.2-14.5 0.5-2.4 1.2-4.8 1.5-7.3q0.5-3.7 0.4-7.5c-0.1-4.9-0.7-9.9-1.4-14.7z"/><path class="l" d="m358.9 142.2c4.6 11.3 22.7 47.9 34.6 50.4 7.8 1.7 39.3-1.3 44.7-8.8 2.4-3.2-1.6-25.9-5.8-25-4.2 0.9-29.5 4.3-32.6 3.4-3.1-0.9-26.4-27.7-35-34.4-15-11.4-8.3 8.3-5.9 14.4z"/><path class="a" d="m422.9 157.2l0.6 34c0 0-25 4.6-35.6 0.5-13-5-30.8-46.4-33.2-53.2-3.9-11.1-2.4-17.7 3.6-15.9 2.4 0.7 5.4 2.7 9.1 6.2 3.9 3.7 26.2 27.3 33.3 31.9 4 2.6 22.2-3.5 22.2-3.5z"/><path class="g" d="m417.2 189.8c-0.2-5-0.5-25.6-0.3-30.1 0-0.3 0.2-0.4 0.3-0.1 1.1 15.1 0.2 25.2 0.2 30.2 0 0.1-0.2 0.1-0.2 0z"/><path class="d" d=""/><path class="f" d="m412.9 192.7c-8.1 0.8-18.9 1.3-25-1-13-5-30.8-46.4-33.2-53.2-3.9-11.1-2.4-17.7 3.6-15.9q0.3 0.1 0.6 0.2z"/><path class="h" d="m377.9 170.8l4.8 32.7c0 0-53.3 0.8-66.5-0.1 0 0 10.8-61.1 25-76.6 7.1-7.7 15.5-7.1 20.8-1.7 1.3 1.3 17.4 22.6 19.1 30.7 1.5 7.1-3.2 15-3.2 15z"/><path class="a" d="m347.1 122.3c0 0 4.6 175.5 0.2 183.1-2.7 4.6-47-6.5-47-6.5 0 0 11.4-104 24.6-141 12.2-34.3 22.2-35.6 22.2-35.6z"/><path fill-rule="evenodd" class="f" d="m314 227.1c0-0.1 7.4 1 13.6 1 6.3 0 12.6-0.6 14.4-0.6 0.1 0 0.2 0.3 0.2 0.4 0.1 1.4 0.4 7.9 0.4 9.3 0 3.6-0.2 13.8-1.1 15.8-2 4.4-10.7 4.4-13.1 4.4-2.4 0.1-10.2 0.3-13.1-2.5-1.5-1.6-1.8-9.8-1.6-17.1 0.1-3.5 0.1-10.7 0.3-10.7zm28.2 0.7c0-0.2-0.6-0.2-0.6-0.1q0 0.2 0 0.4 0.3-0.1 0.5-0.1 0.1 0 0.1-0.1 0-0.1 0-0.1zm-0.6 0.3c-2.8 0.3-9.4 0.9-13.9 0.9-4.9 0-11.3-0.7-13.2-1.2 0 1.3 0 2.4 0 3.7 4.5 0.9 13.1 2.4 27 0.6 0.1-0.5 0-2.9 0.1-4zm-13.9 28.4c7.7 0 11-1.6 12.2-3.2 1.4-1.8 1.5-5.1 1.6-8.7 0.1-2.8 0-11.6 0-11.8-4.5 0.9-16.3 2.1-27-0.4 0 4.2 0 7.6 0 11.7 0 3.1 0.2 8.2 1.7 9.9 1.3 1.5 6 2.5 11.5 2.5z"/><path class="a" d="m381.9 302.1c1.8 2.2 16.4-5 16.4-5l-20.1-126.9c0 0 4.3-6.3 2.9-14.3-1.4-8-18.1-31.1-20.8-32.3 0 0 3.8 15 5.8 36.3 4.6 50 13.2 139 15.8 142.2z"/><path class="g" d="m375.8 145.1c-1.5-2.3-3-4.7-4.4-7.1-0.1 0 0-0.1 0.1-0.1q2.2 3 4.4 6-0.8-1.6-1.4-3.2c-0.1-0.2 0.1-0.3 0.2-0.2q0.9 2.2 1.8 4.3c1.3 1.8 2.5 3.7 3.4 5.6 2 4.2 2.9 8.8 1.8 13.3q-0.4 1.9-1.3 3.7c-0.4 0.7-1.7 2.5-1.7 2.5 0.9 4.7 1.5 9.4 2.1 14.1 0.7 4.7 1.4 9.4 1.9 14.2 0.3 2.7 0.5 5.4 0.9 8.1 0.1 0.1-0.1 0.1-0.1 0-0.4-2.3-0.9-4.6-1.3-6.9q-0.6-3.5-1.2-7c-0.7-4.8-1.4-9.5-2.1-14.2-0.4-2.7-0.8-5.4-1.1-8.1 0-0.3 1.2-2.2 1.5-2.9q0.8-1.5 1.2-3.1c0.6-2.1 0.8-4.4 0.6-6.6-0.5-4.5-2.9-8.6-5.3-12.4z"/><path class="f" d="m360.4 124.2q2.4 3.5 4.8 7c1.7 2.4 3.2 4.7 4.9 7v-0.5l-3.9 4.1-0.4 0.4 0.4 0.3q2.5 2.5 5.1 4.9l-0.2-0.5c-0.6 4.4-1.3 8.7-1.8 13q-0.9 6.5-1.6 13.1 1.2-6.5 2.3-13c0.7-4.3 1.4-8.6 2.1-12.9v-0.3l-0.2-0.1q-2.5-2.5-5.1-4.9l0.1 0.7 3.9-4.2 0.2-0.3-0.2-0.3c-1.7-2.3-3.4-4.5-5.1-6.8q-2.6-3.4-5.3-6.7z"/><path class="l" d="m332.6 132.8c-20.9 19.7-45.6 53.7-36.9 62.1 5.8 5.5 34.8-31.5 34.3-31.4-1.1 0.2 5.1-12.1 12.9-27 8.5-16.7 1.7-14.9-10.3-3.7z"/><path class="a" d="m342.9 124.2c-14.6 7.2-54.8 54.1-49.5 68.4 5.2 14.4 38.4-28.9 38-29.5-0.3-0.7 8.1-17.1 11.5-23.8 3.5-6.7 7.7-18.9 0-15.1z"/><path class="g" d="m340.9 147.1q-1.2 1.3-2.4 2.6-0.2 0.2-0.4 0.5 0.4-0.7 0.7-1.4c0.8-1.7 1.7-3.3 2.3-5 0.1-0.1-0.1-0.2-0.1-0.1-1.1 1.6-1.9 3.4-2.8 5q-1.4 2.5-2.7 5c-0.8 1.7-1.7 3.4-2.6 5-0.8 1.7-1.7 3.4-2.2 5.1-0.1 0.1 0.1 0.2 0.1 0.1 1.2-1.5 2-3.3 2.9-5 0.9-1.7 1.8-3.4 2.6-5q0.5-1.1 1.1-2.2 0.2-0.2 0.4-0.4 0.5-0.7 1.1-1.3 1-1.4 2-2.9c0 0 0 0 0 0z"/><path class="f" d="m347 124.3q-1.6 3.8-3.3 7.6c-1.2 2.5-2.3 5.1-3.5 7.6l-0.1-0.6 4.2 3.7 0.4 0.3-0.3 0.3q-2 2.8-4 5.5l0.1-0.4c1.2 4.2 2.4 8.4 3.5 12.6q1.7 6.3 3.3 12.7-2-6.2-3.9-12.5c-1.3-4.2-2.5-8.4-3.7-12.6l-0.1-0.2 0.1-0.2q2-2.8 4-5.5l0.1 0.7-4.2-3.7-0.3-0.2 0.2-0.3c1.2-2.5 2.5-5 3.7-7.4q1.9-3.7 3.8-7.4z"/><path class="k" d="m344.9 128.3c-0.4-5.2 3.9-7.1 7.8-7.6 4.6-0.6 7.7-0.2 10 4.3 2.3 4.7 3.5 10.2 4.4 15.4 0.2 1 1.7 0.8 1.6-0.2-1.1-6-2.6-17.2-8.6-20.4-5.5-3-17.4-0.1-16.8 8.8 0.1 1 1.6 0.7 1.6-0.3z"/><path class="g" d="m371.8 142.6c0.3 1.9-1 3.8-2.9 4.1-1.9 0.3-3.7-1-4-3-0.3-1.9 1-3.7 2.9-4 1.9-0.3 3.7 1 4 2.9z"/><path class="a" d="m370.5 142.8c0.1 1.2-0.6 2.3-1.8 2.5-1.2 0.2-2.2-0.6-2.4-1.8-0.2-1.1 0.6-2.2 1.7-2.4 1.2-0.2 2.3 0.6 2.5 1.7z"/><path class="c" d="m350.1 144.7c3.9 14.8 3.3 18.4 2.1 20-1.3 1.8-3.4 2.8-3.5 2.8l-0.4-0.9 0.2 0.4-0.2-0.4c0-0.1 1.9-0.9 3-2.5 0.9-1.2 1.6-4.5-2.2-19.1z"/><path class="g" d="m349.9 166.2c0.3 0.6 0.1 1.3-0.4 1.6l-1.3 0.7c-0.5 0.3-1.2 0.1-1.5-0.5-0.3-0.5-0.1-1.2 0.4-1.5l1.3-0.7c0.5-0.3 1.2-0.1 1.5 0.4z"/><path class="c" d="m340.5 145.1c-2.9 11.1-3.6 17.1-2.2 19.1 1.1 1.5 3 2.4 3 2.4l-0.4 1c-0.1 0-2.2-1-3.5-2.8-1.6-2.3-1-8.1 2.1-20z"/><path class="g" d="m339.7 166.3h-0.1c-0.3 0.6-0.1 1.2 0.5 1.5l1.3 0.7c0.5 0.3 1.2 0.2 1.5-0.4 0.3-0.6 0.1-1.2-0.4-1.5l-1.3-0.8c-0.6-0.3-1.2-0.1-1.5 0.5z"/><path class="g" d="m339.1 144.4c0.4-1.6 1.2-5.4 2-7.3 0.6-1.6 2.1-2.6 2.1-2.6 0.2 0 0.1-1.9 0-3.4-0.1-1.4-0.2-2.9 0.1-3.4 0.3-0.4 1.1-0.4 1.5 0 0.3 0.4 0.4 1.9 0.4 3.3 0.1 1.5 0.2 3.4 0.4 3.4 0 0 1.5 0.9 2.2 2.4 0.9 1.6 2.3 6 2.6 7.2 0.3 1.6-0.2 1.8-0.6 2-0.7 0.2-1.1-0.3-1.6-2-0.8-2.8-1.8-7.4-3.7-7.4-1.9 0.2-2.7 5.1-3.3 7.9-0.4 1.7-0.8 1.8-1.4 1.7-0.5-0.1-1-0.3-0.7-1.8z"/><path class="k" d="m357.3 146.2c0 0-3.7-5.6 0.3-7.8 4-2.2 6.7 3.9 6.7 3.9z"/><path class="k" d="m387 183l0.2 6.5v2.2l-1.8-1.2-5.4-3.6-22.8-41 7-3.9 22.8 41q0 0 0 0z"/><path class="n" d="m387.2 189.5v2.2l-1.8-1.2z"/><path class="g" d="m356.5 146l8.2-4.5 0.9 1.6-8.2 4.6z"/><path class="g" d="m357.5 147.9l8.2-4.6 0.9 1.6-8.2 4.6z"/><path class="g" d="m358.4 149.5l2.6-1.5 6.8 15.6-1 0.5z"/><path class="l" d="m295.7 194.9c7.9 7.7 39.4 3.5 59.5-2.5 3.8-1.1-8.5-35.1-12.5-33.5-6.9 2.9-12.2 4.5-12.7 4.6-1.1 0.2-42.9 23-34.3 31.4z"/><path class="l" d="m390.2 160.4c-0.3 3.8-9.6 2.3-9.6 2.3 0 0 2.1 1.5 2.5 4 0.5 2.9-3.8 4.9-3.8 4.9 0 0 1.8 2 2 4.7 0.2 2.8-3.8 5.4-3.8 5.4 0 0 0.6 2.8-0.9 5.3-2.6 4.1-10.1 3.6-14.8 4.2-5 0.6-12.5 2.5-15.6 3.6l-5.8-34.9c0 0 21.1-10.3 26.7-9.6 4.7 0.6 23.5 4.2 23.1 10.1z"/><path class="g" d="m380.5 162.5c-4.9-1.8-10.2-2.5-15.3-3.1-0.1 0-0.1 0.2 0 0.2 5.1 0.5 10.2 2.4 15.2 3.2 0.2 0 0.2-0.2 0.1-0.3z"/><path class="g" d="m379.2 171.2c-1.1-0.4-2.3-0.4-3.5-0.5q-1.9-0.1-3.8-0.2-3.7-0.1-7.5-0.1c-0.1 0-0.1 0.2 0 0.2q3.7 0.1 7.5 0.4 1.8 0.2 3.7 0.4c1.2 0.1 2.4 0.3 3.6 0.1 0.1 0 0.2-0.3 0-0.3z"/><path class="g" d="m377.4 181.7c-1-0.4-2.2-0.2-3.2-0.2q-1.7-0.1-3.5-0.1c-2.3-0.1-4.5-0.1-6.8-0.3-0.1 0-0.2 0.2 0 0.2 2.3 0.2 4.6 0.3 6.9 0.5q1.7 0.1 3.4 0.1c1 0.1 2.2 0.3 3.2-0.1 0 0 0-0.1 0-0.1z"/><path class="a" d="m293.4 192.6c5.2 14.4 51.1 3.4 51.1 3.4l-0.4-37.8c0 0-12.3 5.5-12.7 4.9-0.3-0.7-43.3 15.2-38 29.5z"/><path class="g" d="m339.1 193.4c-0.4-5.1-1.1-25.7-1-30.1 0-0.3 0.2-0.4 0.3-0.1 1.4 15 0.8 25.2 0.9 30.1 0 0.2-0.2 0.2-0.2 0.1z"/><path class="g" d="m343.8 158.2c-1.3 0.3-2.6 0.9-3.9 1.4q-1.7 0.7-3.5 1.4-3.7 1.5-7.4 3.1-3.7 1.6-7.3 3.4c-2.4 1.1-4.8 2.4-7.2 3.6-0.1 0 0 0.2 0.1 0.1 2.5-1.1 5-2 7.5-3.1q3.6-1.5 7.3-3.1 3.6-1.5 7.3-3 1.7-0.8 3.5-1.6c1.3-0.5 2.6-1 3.8-1.7 0.2-0.2 0.1-0.6-0.2-0.5z"/><path class="g" d="m344.7 195.2c0-0.3-0.1-0.3-0.2-0.1 0 0.2-0.1 0.4-0.1 0.6-1.6 0.3-7.3 1.4-8.7 1.7-2.9 0.6-5.8 1.3-8.7 1.7-3 0.3-9.4 0.9-12.4 0.9-0.1 0-0.1 0.1 0 0.1 3.1 0.2 9.5 0 12.4-0.3q4.5-0.5 9-1.4 2.2-0.5 4.4-1.1c1.4-0.3 2.8-0.6 4.1-1.2 0.1-0.1 0.2-0.2 0.2-0.3q0-0.3 0-0.6z"/><path class="b" d="m417.8 194.7l-39.6 0.9 17.4-51.2 39.6-0.9z"/><path class="n" d="m420.5 194.7l-39.6 0.8 17.4-51.2 39.6-0.8z"/><path class="c" d="m402.5 144.2c-0.2 0.8-0.8 1.7-1.6 2.1-0.4 0.2-0.5-0.2-0.1-0.4 0.5-0.3 0.9-0.9 1.1-1.4q0-0.1 0.1-0.3 0.1-0.5 0-0.9-0.1-0.2-0.2-0.4 0 0-0.1 0 0 0 0 0c0 0-0.1 0-0.1 0q-0.1 0-0.3 0-0.2 0.1-0.4 0.3c-0.2 0.2-0.3 0.3-0.4 0.5q-0.1 0.2-0.2 0.3v0.1q0 0.1 0 0.1 0 0-0.1 0.1h-0.5q0.2-0.5 0.5-1c0.4-0.5 0.9-1 1.5-1 0.5 0 0.8 0.4 0.9 0.8q0.1 0.5-0.1 1.1z"/><path class="c" d="m405.6 144.2c-0.2 0.8-0.8 1.6-1.6 2.1-0.4 0.2-0.5-0.3-0.2-0.5 0.6-0.3 1-0.8 1.2-1.3q0-0.2 0.1-0.3 0.1-0.5 0-1-0.1-0.2-0.2-0.3 0 0-0.1-0.1 0 0 0 0c0 0-0.1 0-0.1 0q-0.1 0-0.3 0-0.2 0.1-0.4 0.3c-0.2 0.2-0.3 0.4-0.4 0.6q-0.1 0.1-0.2 0.3 0 0.1 0 0.1-0.1 0.1-0.1 0.1h-0.5q0.2-0.5 0.5-1c0.4-0.5 0.9-0.9 1.5-1 0.5 0 0.8 0.4 0.9 0.8q0.1 0.6-0.1 1.2z"/><path class="c" d="m408.7 144.1c-0.2 0.8-0.8 1.6-1.6 2.1-0.4 0.2-0.5-0.3-0.2-0.5 0.6-0.3 1-0.8 1.2-1.3q0-0.1 0.1-0.3 0.1-0.5 0-1-0.1-0.2-0.2-0.3 0 0-0.1 0 0 0 0 0c0 0-0.1-0.1-0.1-0.1q-0.1 0-0.3 0.1-0.2 0.1-0.4 0.3c-0.2 0.2-0.3 0.3-0.4 0.5q-0.1 0.2-0.2 0.3v0.1q0 0 0 0.1 0 0-0.1 0l-0.5 0.1q0.2-0.5 0.5-1c0.4-0.6 0.9-1 1.5-1 0.5 0 0.8 0.3 0.9 0.8q0.1 0.5-0.1 1.1z"/><path class="c" d="m411.8 144c-0.2 0.8-0.8 1.7-1.6 2.1-0.4 0.3-0.5-0.2-0.2-0.4 0.6-0.3 1-0.9 1.2-1.4q0-0.1 0.1-0.3 0.1-0.5 0-0.9-0.1-0.2-0.2-0.4 0 0-0.1 0 0 0 0 0c0 0-0.1 0-0.1 0q-0.1 0-0.3 0-0.2 0.1-0.4 0.3c-0.2 0.2-0.3 0.3-0.4 0.5q-0.1 0.2-0.2 0.3v0.1q0 0.1 0 0.1-0.1 0-0.1 0.1h-0.5q0.2-0.5 0.5-1c0.4-0.5 0.9-1 1.5-1 0.5 0 0.8 0.4 0.9 0.8q0.1 0.5-0.1 1.1z"/><path class="c" d="m414.9 144c-0.2 0.8-0.8 1.6-1.6 2.1-0.4 0.2-0.5-0.3-0.2-0.5 0.6-0.3 1-0.8 1.2-1.3q0-0.2 0-0.3 0.2-0.5 0.1-1-0.1-0.2-0.2-0.3 0 0-0.1-0.1 0 0 0 0c0 0-0.1 0-0.1 0q-0.1 0-0.3 0-0.2 0.1-0.4 0.3c-0.2 0.2-0.3 0.4-0.4 0.6q-0.1 0.1-0.2 0.3 0 0.1 0 0.1-0.1 0.1-0.1 0.1h-0.5q0.2-0.5 0.5-1c0.4-0.5 0.9-0.9 1.5-1 0.5 0 0.8 0.4 0.9 0.8q0.1 0.6-0.1 1.2z"/><path class="c" d="m418 143.9c-0.2 0.8-0.8 1.6-1.6 2.1-0.4 0.2-0.5-0.3-0.2-0.5 0.6-0.3 1-0.8 1.2-1.3q0-0.1 0-0.3 0.2-0.5 0.1-1-0.1-0.2-0.2-0.3 0 0-0.1 0 0 0 0 0c0 0-0.1 0-0.1 0q-0.1-0.1-0.3 0-0.2 0.1-0.4 0.3c-0.2 0.2-0.3 0.3-0.4 0.5q-0.1 0.2-0.2 0.3v0.1q0 0 0 0.1-0.1 0-0.1 0.1h-0.5q0.2-0.5 0.5-1c0.4-0.6 0.9-1 1.5-1 0.5 0 0.8 0.3 0.9 0.8q0.1 0.5-0.1 1.1z"/><path class="c" d="m421.1 143.8c-0.2 0.8-0.8 1.7-1.6 2.1-0.4 0.3-0.5-0.2-0.2-0.4 0.6-0.3 1-0.9 1.2-1.4q0-0.1 0-0.3 0.2-0.5 0.1-0.9-0.1-0.2-0.2-0.4-0.1 0-0.1 0 0 0 0 0c0 0-0.1 0-0.1 0q-0.1 0-0.3 0-0.2 0.1-0.4 0.3c-0.2 0.2-0.3 0.3-0.4 0.6q-0.1 0.1-0.2 0.2v0.1q0 0.1 0 0.1-0.1 0.1-0.1 0.1h-0.5q0.2-0.5 0.5-1c0.4-0.5 0.9-1 1.5-1 0.5 0 0.8 0.4 0.9 0.8q0.1 0.5-0.1 1.1z"/><path class="c" d="m424.2 143.8c-0.2 0.8-0.8 1.6-1.6 2.1-0.4 0.2-0.5-0.3-0.2-0.5 0.6-0.3 1-0.8 1.2-1.3q0-0.2 0-0.3 0.2-0.5 0.1-1-0.1-0.2-0.2-0.3-0.1 0-0.1-0.1 0 0 0 0c0 0-0.1 0-0.1 0q-0.1 0-0.3 0-0.2 0.1-0.4 0.3c-0.2 0.2-0.3 0.4-0.4 0.6q-0.1 0.1-0.2 0.3 0 0.1 0 0.2-0.1 0-0.1 0h-0.5q0.2-0.5 0.5-1c0.4-0.5 0.9-0.9 1.5-1 0.5 0 0.8 0.4 0.9 0.8q0.1 0.6-0.1 1.2z"/><path class="c" d="m427.3 143.7c-0.2 0.8-0.8 1.6-1.6 2.1-0.4 0.2-0.5-0.3-0.2-0.5 0.6-0.3 1-0.8 1.2-1.3q0-0.1 0-0.3 0.2-0.5 0.1-1-0.1-0.2-0.2-0.3-0.1 0-0.1 0 0 0 0 0c0 0-0.1 0-0.1 0q-0.1-0.1-0.3 0-0.2 0.1-0.4 0.3c-0.2 0.2-0.3 0.3-0.4 0.5q-0.1 0.2-0.2 0.3v0.1q0 0 0 0.1-0.1 0-0.1 0.1h-0.5q0.1-0.5 0.5-1c0.4-0.6 0.9-1 1.5-1 0.5 0 0.8 0.3 0.9 0.8q0.1 0.5-0.1 1.1z"/><path class="c" d="m430.4 143.6c-0.2 0.8-0.8 1.7-1.6 2.1-0.4 0.3-0.5-0.2-0.2-0.4 0.6-0.3 1-0.9 1.2-1.4q0-0.1 0-0.2 0.2-0.6 0.1-1-0.1-0.2-0.2-0.4-0.1 0-0.1 0 0 0 0 0c0 0-0.1 0-0.1 0q-0.1 0-0.3 0-0.2 0.1-0.4 0.3c-0.2 0.2-0.3 0.3-0.4 0.6q-0.1 0.1-0.2 0.2v0.1q0 0.1 0 0.1-0.1 0.1-0.1 0.1h-0.5q0.1-0.5 0.5-1c0.4-0.5 0.9-1 1.5-1 0.5 0 0.8 0.4 0.9 0.8q0.1 0.5-0.1 1.1z"/><path class="c" d="m433.5 143.6c-0.2 0.8-0.8 1.6-1.7 2.1-0.3 0.2-0.4-0.3-0.1-0.5 0.6-0.3 1-0.8 1.2-1.3q0-0.2 0-0.3 0.2-0.5 0.1-1-0.1-0.2-0.3-0.3 0 0 0 0 0-0.1 0-0.1c0 0-0.1 0-0.1 0q-0.1 0-0.3 0-0.2 0.1-0.4 0.4c-0.2 0.1-0.3 0.3-0.4 0.5q-0.1 0.1-0.2 0.3v0.1q0 0 0 0.1-0.1 0-0.1 0h-0.5q0.1-0.5 0.5-1c0.4-0.5 0.9-0.9 1.5-1 0.5 0 0.8 0.4 0.9 0.8q0.1 0.6-0.1 1.2z"/><path class="c" d="m436.6 143.5c-0.2 0.8-0.8 1.6-1.7 2.1-0.3 0.2-0.4-0.3-0.1-0.5 0.6-0.3 1-0.8 1.2-1.3q0-0.1 0-0.3 0.2-0.5 0.1-0.9-0.1-0.3-0.3-0.4 0 0 0 0 0 0 0 0c-0.1 0-0.1 0-0.1 0q-0.1-0.1-0.3 0-0.2 0.1-0.4 0.3c-0.2 0.2-0.3 0.3-0.4 0.5q-0.1 0.2-0.2 0.3v0.1q0 0 0 0.1-0.1 0-0.1 0.1h-0.5q0.1-0.5 0.5-1c0.4-0.5 0.9-1 1.5-1 0.5 0 0.8 0.3 0.9 0.8q0.1 0.5-0.1 1.1z"/><path class="l" d="m435.4 155.1c1.8 4.3 6.8 9.9 7 13.4 0.3 3.2-2.4 4.2-2.4 4.2 0 0 3.4 1.9 3.2 5.1-0.2 1.7-3 2.9-3 2.9 0 0 2.7 1.7 2.3 4.5-0.3 2.3-3.1 3.2-3.1 3.2 0 0 1.9 2.8 0.8 5-2.2 4.5-22 3.7-24.8-3.7-1.3-3.5 3.5-3 3.5-3 0 0-6.7-2.3-6.7-6.4 0.1-4.1 6.3-3.1 6.3-3.1 0 0-6.5-2.4-6.1-6.6 0.6-4.4 6.6-2.4 6.6-2.4 0 0-4.3-3.1-3.1-6.3 1.8-5.2 9.9 1.8 14.3 0.9l2.7-7.1z"/><path class="l" d="m439.1 161.4c-1.4-4.3 4-9.3 3.3-13.6-1.1-5.8-7.8-0.4-9.5 7.9l-0.3 6.7z"/><path class="g" d="m439 188.6c0.1 0 0.1 0.1 0 0.1-6.5 1.3-14.2 0.8-20.3-2-0.2-0.1-0.2-0.5 0.1-0.4 6.9 1.7 13.1 2.6 20.2 2.3z"/><path class="g" d="m440.3 180.8c0.1 0 0.1 0.1 0 0.1-6.7 1.3-15.3 0.5-22-3.6-0.3-0.1-0.3-0.5 0-0.3 4.6 2.3 15.6 4.1 22 3.8z"/><path class="g" d="m418.6 167.8c6.6 3.6 13.7 4.8 21.1 5 0.1 0 0.1 0.1 0 0.1-3.6 0.9-8.4 0.3-12-0.4-3.5-0.8-6.5-2.1-9.2-4.5-0.1-0.1 0-0.3 0.1-0.2z"/><path class="l" d="m349 123.8c0.3 1 4.2 7.7 9 7.7 3 0 2.2-10.4 2.2-10.4l0.1-0.6 0.7-9-11.2-5.1-1.6-0.7c0 0 0 2.5 0 5.6q0 0.2 0 0.4-0.1 0.3 0 0.5-0.1 0.7-0.1 1.4 0 0.6 0.1 1.1 0 0.6 0 1.1c0.1 3.7 0.6 7.5 0.8 8z"/><path class="g" d="m348.2 111.3c3.5 6.6 9.4 8.6 12.1 9.2l0.7-9-11.2-5.1-1.6-0.7c0 0 0 2.5 0 5.6z"/><path class="l" d="m373.4 100c-0.4 15.8-9.9 17.3-13.3 17.3-3.1-0.1-13.7-0.8-14.9-16.6-1.3-15.8 6.2-20.6 13.3-20.8 7.2-0.2 15.3 4.2 14.9 20.1z"/><path class="g" d="m369.6 96c-0.3-0.1-0.7-0.2-1-0.4-0.4-0.1-0.7-0.1-1-0.5-0.2-0.2-0.1-0.5 0-0.7 0.4-0.3 0.9-0.3 1.4-0.2 0.6 0.2 0.9 0.4 1.3 0.8 0.3 0.5-0.2 1.1-0.7 1z"/><path class="g" d="m359.3 95.2c0.4-0.1 0.7-0.1 1.1-0.2 0.4 0 0.7 0 1.1-0.3 0.1-0.2 0.2-0.5 0-0.7-0.3-0.5-0.8-0.5-1.3-0.5-0.6 0.1-1 0.3-1.4 0.7-0.3 0.3 0 1 0.5 1z"/><path class="g" d="m361.2 99.3c0 0 0 0.1 0 0.1-0.1 1.1-0.3 2.3-1.3 2.6 0 0 0 0.1 0 0.1 1.2-0.1 1.5-1.7 1.3-2.8z"/><path class="g" d="m360.3 98.1c-1.7-0.2-2 3.3-0.4 3.5 1.6 0.2 1.9-3.3 0.4-3.5z"/><path class="g" d="m359.6 98.3c-0.3 0.1-0.6 0.4-1 0.4-0.4 0-0.7-0.3-0.9-0.7q-0.1-0.1-0.1 0c-0.1 0.7 0.1 1.4 0.8 1.6 0.7 0.1 1.2-0.4 1.4-1.1 0.1-0.1 0-0.3-0.2-0.2z"/><path class="g" d="m367.2 99.7c0 0 0.1 0.1 0.1 0.1-0.1 1.1-0.1 2.4 0.8 2.8 0 0 0 0.1 0 0.1-1.2-0.3-1.2-2-0.9-3z"/><path class="g" d="m368.3 98.7c1.8 0.1 1.5 3.5-0.1 3.5-1.6-0.1-1.3-3.5 0.1-3.5z"/><path class="g" d="m369 99c0.3 0.2 0.5 0.5 0.9 0.6 0.3 0 0.6-0.3 0.9-0.7q0.1 0 0.1 0.1c-0.1 0.6-0.3 1.3-1 1.4-0.6 0.1-1-0.5-1.1-1.2 0-0.1 0.1-0.3 0.2-0.2z"/><path class="g" d="m360.6 107.9c0.2 0.3 0.4 0.7 0.8 0.8 0.4 0 0.8-0.1 1.2-0.1 0-0.1 0 0 0 0-0.3 0.4-0.9 0.6-1.4 0.4-0.5-0.2-0.7-0.6-0.7-1.1 0 0 0 0 0.1 0z"/><path class="g" d="m365.4 104.4c0 0 0.1 1.6 0 2.4 0 0-0.2 0.1-0.4 0.1q0 0-0.1 0c-1.3 0.1-2.6-0.5-3.3-1.7-0.1-0.1 0-0.1 0.1-0.1 0.9 0.8 2 1.1 3.2 1.2 0.1-0.2-0.2-2.7-0.1-2.7 0.4 0 1.2 0.3 1.7 0.5-0.1-3.4-0.7-6.7-0.8-10.1 0-0.1 0.2-0.2 0.2-0.1 0.9 3.5 1.1 7.4 1.3 10.9 0 0.5-1.5-0.3-1.8-0.4z"/><path class="g" d="m364.5 106.4c0 0-0.7 0.9-1.6 1.1-0.3 0.2-0.7 0.2-1.1 0.1-0.7-0.3-0.7-1-0.6-1.6 0.2-0.5 0.4-0.9 0.4-0.9 0 0 1.1 1.1 2.9 1.3z"/><path class="o" d="m362.9 107.5c-0.3 0.2-0.7 0.2-1.1 0.1-0.7-0.3-0.7-1-0.6-1.6 0.9 0.2 1.7 0.7 1.7 1.5z"/><path class="g" d="m345 98.4c1.8 0.2 7.2-3.6 8.9-11.8 0 0-2.1 7.3-2.8 8.2-0.8 1 3-2.1 4.5-8.7 0 0 3.2 3.4 6.1 4.9 3 1.5 4.9 1.8 5.2 1.7 0.3-0.2-4.1-2.6-5-4.3 0 0 7.6 5.6 11.4 6.6 0.4 0.1 2.8-8.9-2.4-14-5.2-5.1-15.5-2.8-18.5-0.8 0 0-3.1-0.2-7.2 3.6-4.1 3.7-2 14.3-0.2 14.6z"/><path class="l" d="m347.9 100.1c0 0-2.9-5.3-5.3-4.4-2.3 1-0.6 8.4 1.9 9.7 2.6 1.3 3.8-1 3.8-1z"/><path class="g" d="m343.2 97.9c-0.1 0-0.1 0 0 0 1.7 1 2.5 2.8 3 4.6-0.5-0.7-1.2-1.2-2.2-0.6 0 0 0 0.1 0.1 0.1 0.7-0.1 1.3 0.1 1.7 0.8 0.3 0.4 0.5 1 0.7 1.5 0.1 0.2 0.4 0.1 0.3-0.1q0 0 0 0c0.3-2.3-1.1-5.8-3.6-6.3z"/><path class="p" d="m65.4 442.6c2.3 0.7 68.3-0.2 70.8-1.8 0.9-0.6 1.4-10.2 1.6-21.9q0-0.1 0-0.3 0-3.6 0-7.4 0-0.5 0.1-1c0.1-16.8-0.2-34.3-0.2-34.3l-44.2 0.5 1.4 33.9v1.3l0.3 7.1v0.7c0 0-25.1 11.6-27.6 13.7-2.6 2.1-4.5 8.7-2.2 9.4z"/><path class="a" d="m137.8 414q0 2.3 0 4.6 0 0.2 0 0.4c-0.2 11.6-0.7 21.2-1.6 21.8-2.5 1.6-68.5 2.5-70.8 1.8-2.3-0.8-0.4-7.4 2.2-9.5 2.5-2.1 27.6-13.7 27.6-13.7v-0.7l-0.2-4.3z"/><path class="q" d="m85.2 423.9q0.3-0.1 0.3-0.2 0 0-0.3 0.2z"/><path class="c" d="m65.1 442.7c2.3 0.7 68.7-0.1 71.2-1.7 0.9-0.6 1.4-10.3 1.6-22l-42.8 0.4c0 0-25.2 11.7-27.8 13.7-2.5 2.1-4.5 8.8-2.2 9.6z"/><path class="f" d="m137.9 419c-0.2 11.7-0.7 21.4-1.6 22-1.1 0.7-13.1 1.2-27 1.6l23.9-23.5z"/><path class="g" d="m66 440c11.2-0.4 56-1 67-0.5 0.1 0 0.1 0 0 0-11 0.7-55.8 0.9-67 0.7-0.2 0-0.2-0.2 0-0.2z"/><path class="g" d="m90.8 420.6c4.5-0.1 9.7 1.4 12.5 5 0.1 0.1-0.1 0.3-0.3 0.2-4-2-7.9-3.5-12.2-4.7-0.3-0.1-0.3-0.5 0-0.5z"/><path class="g" d="m87.4 422c4.5-0.2 9.6 1.3 12.4 5 0.2 0.1 0 0.2-0.2 0.2-4-2-7.9-3.5-12.3-4.7-0.3-0.1-0.2-0.5 0.1-0.5z"/><path class="g" d="m84 423.3c4.4-0.1 9.6 1.4 12.4 5 0.1 0.2-0.1 0.3-0.2 0.3-4-2.1-7.9-3.6-12.3-4.7-0.3-0.1-0.2-0.6 0.1-0.6z"/><path class="g" d="m80.6 424.7c4.4-0.1 9.6 1.4 12.4 5 0.1 0.2-0.1 0.3-0.2 0.2-4.1-2-7.9-3.5-12.3-4.6-0.3-0.1-0.2-0.6 0.1-0.6z"/><path class="h" d="m151.2 185.9c0 0-9.9 111.5-11.5 120-0.4 1.9-0.6 12.5-0.8 26-0.3 29.6-0.1 82.9-0.1 82.9h-46.5c0 0 1.4-92.4 3.4-109.4 2.1-17 15.3-119.5 15.3-119.5z"/><path class="g" d="m94.4 406.7c7.3-0.2 5.2-0.2 12.4-0.3 3.6-0.1 26.9-0.3 30.2 0.3 0.1 0 0.1 0.1 0 0.1-3.3 0.6-26.6 0.4-30.2 0.4-7.2-0.1-5.1-0.2-12.4-0.3-0.1 0-0.1-0.2 0-0.2z"/><path class="g" d="m130 353.9q0.1-10.2 0.1-20.3c0.1-6.5 0.1-13 0.4-19.6 0.6-13.2 3.3-26.2 5.2-39.3 1.9-13 3.5-26.2 4.9-39.3 1.6-14.7 3.1-29.5 4.6-44.2 0-0.1 0.2-0.1 0.1 0-2.1 26.3-4.6 52.6-8.2 78.8q-1.4 9.8-3 19.5c-1.1 6.6-2.2 13.1-2.7 19.8-0.5 6.5-0.6 13-0.6 19.5q-0.1 10.1-0.2 20.2c-0.2 15-0.3 38-0.5 53 0 0.3-0.4 0.3-0.4 0 0.1-13.3 0.2-34.8 0.3-48.1z"/><path class="r" d="m161 185.9c0 0-19.7 111.5-21.3 120-0.4 1.9-0.6 12.5-0.8 26l-22.1-146c0 0 44.2 0 44.2 0z"/><path class="p" d="m119.4 446.5c2.4 0.6 68.1-5 70.5-6.8 0.9-0.6 0.7-10.3 0-21.9q0-0.2 0-0.4-0.2-3.6-0.4-7.3-0.1-0.5-0.1-1c-1.1-16.8-2.6-34.2-2.6-34.2l-44 3.6 3.7 33.7 0.2 1.4 0.7 6.9 0.1 0.8c0 0-24.2 13.3-26.6 15.6-2.4 2.2-3.9 9-1.5 9.6z"/><path class="a" d="m189.9 439.7c-2.4 1.8-68.1 7.4-70.5 6.8-2.4-0.6-0.9-7.4 1.5-9.6 2.4-2.3 26.6-15.6 26.6-15.6l-0.1-0.8-0.4-4.2 42.6-3.5q0.2 2.3 0.3 4.6 0 0.2 0 0.4c0.7 11.6 0.9 21.3 0 21.9z"/><path class="q" d="m136.9 426.5q0.2-0.1 0.2-0.2 0 0-0.2 0.2z"/><path class="c" d="m119.2 446.5c2.4 0.6 68.5-4.7 70.9-6.5 0.9-0.7 0.7-10.4 0.1-22.1l-42.7 3.4c0 0-24.4 13.3-26.8 15.6-2.4 2.2-3.9 9.1-1.5 9.6z"/><path class="g" d="m119.9 443.8c11.1-1.2 55.8-4.8 66.8-5.2 0.1 0 0.1 0.1 0 0.1-10.9 1.4-55.6 4.7-66.7 5.3-0.3 0-0.3-0.2-0.1-0.2z"/><path class="g" d="m143.3 422.7c4.5-0.4 9.7 0.7 12.8 4.1 0.1 0.2-0.1 0.3-0.2 0.3-4.2-1.8-8.1-3-12.6-3.8-0.3-0.1-0.3-0.6 0-0.6z"/><path class="g" d="m140 424.3c4.4-0.4 9.7 0.8 12.8 4.2 0.1 0.1-0.1 0.3-0.2 0.2-4.2-1.7-8.2-3-12.6-3.8-0.3-0.1-0.3-0.5 0-0.6z"/><path class="g" d="m136.7 425.9c4.4-0.4 9.7 0.8 12.7 4.2 0.2 0.1 0 0.3-0.2 0.2-4.1-1.7-8.1-3-12.5-3.8-0.3-0.1-0.3-0.5 0-0.6z"/><path class="g" d="m133.4 427.6c4.4-0.5 9.7 0.7 12.7 4.1 0.1 0.1 0 0.3-0.2 0.2-4.2-1.7-8.1-2.9-12.6-3.8-0.3-0.1-0.2-0.5 0.1-0.5z"/><path class="h" d="m145.3 416.5l46.5-3.3c0 0-12.5-99.9-12.7-106.1-0.4-9.3-4.8-47.8-8.6-78.9 0 0 7.1-16.9-6.2-42.4h-53.4c0 0 3.6 24.3 9.7 39.6 0 0 4.7 1.5 11.9 5.5 0 0 5.3 69.4 5.5 78 0.4 17.2 7.3 107.6 7.3 107.6z"/><path class="g" d="m146.6 408c7.2-0.7 5.2-0.6 12.4-1.2 3.5-0.3 26.8-2.1 30.2-1.8 0 0 0 0.2 0 0.2-3.3 0.8-26.6 2.2-30.2 2.4-7.2 0.4-5.1 0.2-12.4 0.6-0.1 0-0.1-0.2 0-0.2z"/><path class="g" d="m118.6 224.4c4.8 1.6 9.5 4 13.9 6.5 0.2 0.1 0.1 0.3-0.1 0.2-4.7-2-9.5-3.9-14.1-6.2-0.3-0.1-0.1-0.6 0.3-0.5z"/><path class="g" d="m176.5 357.7q-2.2-21.3-4.3-42.6-2.1-21.2-4.2-42.5-1.1-10.5-2.1-21.1c-0.7-6.8-1.5-13.6-1.3-20.5 0.4-11.9 3.2-24.4-1-35.9q-0.8-2-1.8-3.9c0-0.1-0.2 0-0.1 0.1 5.6 11.3 3.2 24.3 2.5 36.3-0.5 6.6 0 13.2 0.6 19.8q1 10.4 2 20.9 2 21.1 4.1 42.2 2.1 21.2 4.3 42.3c1.5 14 3 28.1 4.7 42.2q0.3 2.6 0.7 5.1c0 0.1 0.1 0.1 0.1 0-1.3-14.1-2.7-28.2-4.2-42.4z"/><path class="g" d="m137.7 292c-0.8-12.9-1.7-25.8-2.8-38.7-0.6-7.3-1.3-15-2.3-22.3 0 0-0.3-0.2-0.3-0.1 0.7 12.9 2 26.4 2.9 39.3 1 12.9 1.7 25.8 2.4 38.8q0.7 10.9 1.4 21.8c0 0.2 0.2 0.2 0.2 0-0.1-12.9-0.7-25.8-1.5-38.8z"/><path class="g" d="m123.8 212.9c-0.3-2.2-0.6-4.3-0.8-6.5-0.5-4.4-0.9-8.7-1.3-13-0.3-2.5-0.4-5-0.6-7.5 0-0.1-0.2-0.1-0.2 0-0.2 8.8 0.3 17.6 1.8 26.2 0.5 2.5 0.8 5 1.7 7.4 0 0 0.1 0 0.1-0.1-0.1-2.1-0.5-4.3-0.7-6.5z"/><path class="g" d="m129.2 206c-0.4-4.5-0.9-8.9-1.3-13.3-0.2-2.6-0.4-5.1-0.7-7.7 0 0-0.1 0-0.1 0 0.1 4.5 0.3 8.9 0.6 13.3 0.2 4.5 0.6 8.9 1.2 13.3q0.5 3.8 1.1 7.6c0 0.2 0.2 0.2 0.2 0-0.4-4.4-0.6-8.8-1-13.2z"/><path class="r" d="m171.4 205.7l-9.6-0.9-4-0.4-6-0.6-2.2-0.2-4.2-0.4-0.4-0.1h-0.7l-0.3-0.1-22.7-2.2-1-0.1-1.3-0.1-4.7-0.5h-0.8l-0.7-0.1-0.8-0.1-2.8-0.3c1-7.6 1.6-12.7 1.7-13.6q0 0 0 0 0-0.2 0-0.2h53.4c3.9 7.5 6 14.1 7.1 19.9z"/><path class="p" d="m130.7 135.6c-1.6 6.6-20.2 67.2-24 68.1-11.3 2.7-24.8 4.7-24.7-4.5 0.2-14.5 25.7-50.2 39.1-65 8-8.9 11.1-5.2 9.6 1.4z"/><path class="h" d="m123.7 161.2l-17.4-10.7c0 0 9.8-12.4 16.3-18.9 6.6-6.4 11.3-6.1 8.1 7-3.3 13.1-7 22.6-7 22.6z"/><path class="g" d="m124.3 155.7q-3.6-2.2-7.2-4.2c-1.1-0.7-2.3-1.4-3.5-2-1.3-0.7-2.5-1.3-3.8-1.9-0.1-0.1-0.2 0-0.1 0.1 1.2 0.7 2.3 1.4 3.5 2.1 1.2 0.8 2.4 1.4 3.7 2.1q3.6 2 7.3 3.9c0.1 0 0.1-0.1 0.1-0.1z"/><path class="h" d="m109.4 193.5c0 0 40.8 1.8 58.1-0.2 0 0-11.8-49.9-24.4-63.4-5.7-6.1-11.3-5.2-16.1-1.3-1.1 1-15.8 19.7-17.1 26.2-1.1 5.7 3.6 12.1 3.6 12.1z"/><path class="g" d="m113.1 146.9q1.4-2 2.8-3.9 0.2-0.7 0.5-1.4c0.3-0.6 0.6-1.3 0.9-1.9-0.1 0.7-0.4 1.4-0.7 2q-0.1 0.3-0.2 0.6 1.4-1.9 2.9-3.8c-1.8 3-3.8 5.8-5.7 8.7-0.9 1.5-1.8 2.9-2.6 4.5q-0.3 0.7-0.6 1.5c-0.4 1.3-1.1 4 0.4 8.1 0.5 1.4 0.8 2.8 1.5 4.1 0.1 0.1-0.1 0.1-0.1 0.1-0.7-1.3-1.3-2.8-1.9-4.2-0.5-1.3-0.8-2.8-0.9-4.2-0.2-4.2 1.9-7 3.7-10.2z"/><path class="r" d="m131.8 148.1h12.2v2.3h-12.2z"/><path class="p" d="m141.3 136.6c3.9 5.3 23.9 27.4 24.7 29.5 0.7 2.1-3.9 6.6-3.9 7.4 0.4 3.5 7.8 26.5 10.8 24.2 4-3.1 20.6-25.2 18.3-34.7-2.4-9.6-41.3-32.5-47.5-34.5-6.2-2-6.2 2.8-2.4 8.1z"/><path class="h" d="m157 156.7l11.4-15.9c0 0-12.7-8.4-21.2-11.9-8.5-3.6-12.7-1.6-4.9 9.4 7.8 11 14.7 18.4 14.7 18.4z"/><path class="g" d="m165 139.7q-2.7 3.2-5.2 6.4c-0.9 1.1-1.7 2.2-2.5 3.3-0.9 1.1-1.6 2.3-2.5 3.4 0 0.1 0.1 0.2 0.1 0.1 0.9-1.1 1.8-2.1 2.7-3.1 0.9-1.1 1.7-2.2 2.6-3.3q2.5-3.3 4.9-6.7c0.1 0 0-0.1-0.1-0.1z"/><path class="g" d="m157.1 156.8c-1.8-2.3-3.8-4.4-5.7-6.6q-2.9-3.3-5.6-6.7c0 0-0.1 0 0 0.1 0.8 1.2 1.6 2.4 2.5 3.5q0.6 0.9 1.3 1.7-0.3-0.3-0.7-0.5-1-0.8-2.1-1.5c0 0-0.1 0.1 0 0.1q0.9 0.9 1.9 1.6 0.8 0.6 1.6 1.1 0.4 0.5 0.8 1c1.8 2.2 3.6 4.5 5.8 6.3 0.1 0.1 0.2 0 0.2-0.1z"/><path class="p" d="m163.1 206.4c-2.6-1.8 1-3.9 1-3.9 0 0-6 1.8-8-1.2-2-2.8 2.5-5.2 2.9-5.4-0.4 0.1-5.9 1.6-7.7-1.5-1.8-3.3 3.2-5 3.5-5.1-0.3 0-4.7-0.2-5.4-2.9-1.4-4.6 11.1-5.1 13.8-8 0 0-1.3-6.1-1.3-6.2 0 0 1.3 2.3 3.5 3 2.7 0.7 5.1 1.2 6.2 2.4 1.8 2.2 0.4 4.2 0.4 4.2 0 0 3.4-0.3 4.8 2.1 0.8 1.2-0.6 3.5-0.6 3.5 0 0 2.8-0.2 3.9 2.1 0.9 1.8-0.5 3.8-0.5 3.8 0 0 2.7 1 3 3.2 0.7 4.3-13.7 13.8-19.5 9.9z"/><path class="g" d="m179.4 193.7c0-0.1 0.1 0 0 0-4 4.3-9.7 7.8-15.5 8.9-0.2 0.1-0.3-0.2-0.1-0.3 5.7-2.3 10.7-4.8 15.6-8.6z"/><path class="g" d="m176.3 187.4c0.1 0 0.2 0.1 0.1 0.1-4.1 4.4-10.7 8.2-17.5 8.7-0.2 0-0.5-0.2-0.2-0.3 4.5-0.7 13.2-5 17.6-8.5z"/><path class="g" d="m154.3 189.2c6.5-0.7 12.2-3.5 17.5-7.2 0.1 0 0.2 0.1 0.1 0.2-2.1 2.5-5.8 4.4-8.8 5.7-2.8 1.3-5.7 1.8-8.8 1.5-0.1 0-0.1-0.2 0-0.2z"/><path class="g" d="m179.7 193.3c1-1.2 1.6-2.7 1-4.2-0.3-0.7-0.9-1.3-1.5-1.6-0.9-0.4-2-0.3-2.6-0.2 0.9-1.4 1.2-3.3 0.1-4.7-0.5-0.6-1.2-0.8-2-1-0.4-0.1-2.2-0.1-2.6 0.1 0.7-0.8 1-2.1 0.7-3.2-0.3-1.2-1.2-2.1-2.4-2.6-1.3-0.6-2.8-0.7-4.2-1-0.7-0.1-1.4-0.2-2.1-0.6-0.7-0.2-1.2-0.6-1.8-1.6-0.1-0.1-0.1 0.1 0 0.2 0.3 0.5 0.6 0.8 1 1.2q0.7 0.6 1.5 1c1.2 0.6 2.7 0.7 4 1.1 1.1 0.4 2.3 1 3 2 0.7 1.1 0.7 2.4 0.1 3.5 0 0.1 0 0.2 0.1 0.2 0.6-0.1 2 0.1 2.4 0.2 0.6 0.3 1.2 0.5 1.6 1.1 0.9 1.2 0.9 2.9 0.2 4.2 0 0.1 1.4 0.1 2.5 0.7 0.5 0.3 0.9 0.8 1.2 1.3 0.6 1.2 0.5 2.8-0.4 3.9q0 0 0 0 0 0 0 0 0 0 0 0.1 0 0 0 0 0 0 0 0c0 0 0.9 0.4 0.9 0.4q0.1 0 0-0.1c0 0-0.6-0.4-0.7-0.4z"/><path class="k" d="m81.8 162.4l35-11.4 14.8 45.6-35 11.4z"/><path class="g" d="m108.3 156.7l-16.6 5.5-1.6-5.1 16.6-5.4z"/><path class="g" d="m93.9 155.9l2-0.7-0.8-2.3 5-1.6 0.8 2.3 2-0.7-1.4-4.2-9.1 3z"/><path class="p" d="m123.8 168.4c2 1.8 0.8 4.3 0.8 4.3 0 0 2.1 0.3 3.3 1.9 1.4 1.9-0.9 4.9-0.9 4.9 0 0 2 0.8 3.1 2.6 1.2 1.9-0.7 5.3-0.7 5.3 0 0 1.5 1.8 1.3 4-0.4 3.9-5.7 6.7-9.1 8.5-3.3 1.7-14.5 3.6-16.6 4.2l-11.6-21.5c0 0 12.8-12.3 17.1-13.8 3.6-1.3 11.2-2.4 13.3-0.4z"/><path class="p" d="m94.9 181.2c-3.8 3-15.3 14.6-12.5 20.4 2.8 5.8 12.1 5.1 25.1 1.9z"/><path class="g" d="m124.3 172.4c-4.2 0.4-8 2.1-11.8 3.5-0.1 0.1-0.1 0.2 0 0.2 3.9-1.5 7.9-2.2 11.8-3.5 0.1-0.1 0.1-0.2 0-0.2z"/><path class="g" d="m126.7 179.2c-0.9 0.2-1.8 0.6-2.6 1q-1.4 0.6-2.8 1.2-2.7 1.3-5.4 2.7c-0.1 0 0 0.2 0.1 0.1q2.7-1.2 5.5-2.4 1.4-0.6 2.8-1.1c0.8-0.4 1.8-0.7 2.5-1.2 0.2-0.1 0.1-0.3-0.1-0.3z"/><path class="g" d="m129.3 187.4c-0.8 0.1-1.7 0.6-2.4 1q-1.2 0.6-2.5 1.2c-1.6 0.8-3.3 1.6-5 2.3 0 0.1 0 0.2 0.1 0.1 1.7-0.7 3.4-1.4 5.1-2.2q1.3-0.5 2.5-1.1c0.7-0.3 1.7-0.6 2.2-1.2 0 0 0-0.1 0-0.1z"/><path class="g" d="m94.4 181.4c-1.4 1.1-2.5 1.9-3.8 3.3q-0.5 0.5-0.9 0.9-0.2 0.2-0.4 0.3-0.8 0.5-1.6 1.2-1.5 1.2-2.8 2.6c0 0.1 0.1 0.2 0.1 0.1q1.4-1.3 3-2.5 0.2-0.1 0.4-0.3-0.7 0.9-1.4 1.8c-1.2 1.6-2.4 3.2-3.4 5 0 0.1 0.1 0.1 0.2 0 1.8-3 10-11.2 10.9-12.2 0.9-1 0.4-0.8-0.3-0.2z"/><path class="k" d="m143 132c0.2-5-5.2-6.5-8.9-6.9-4.4-0.5-7.7 1-9.6 5.3-2.1 4.6-2.3 9.8-3 14.7-0.2 0.9-1.6 0.8-1.5-0.2 0.8-5.6 1.4-16.6 6.9-19.9 5.1-3 17.8-1.2 17.6 7.2-0.1 0.9-1.5 0.7-1.5-0.2z"/><path class="g" d="m117.1 147.3c-0.2 1.9 1.1 3.5 2.9 3.7 1.8 0.3 3.5-1 3.7-2.8 0.2-1.9-1.1-3.5-2.9-3.8-1.8-0.2-3.5 1.1-3.7 2.9z"/><path class="a" d="m118.4 147.5c-0.1 1.1 0.7 2.1 1.8 2.2 1.1 0.2 2.1-0.6 2.2-1.7 0.1-1.1-0.6-2.1-1.7-2.2-1.1-0.2-2.1 0.6-2.3 1.7z"/><path class="c" d="m138.6 147.6c-3.2 14-2.5 17.4-1.3 19 1.3 1.6 3.3 2.4 3.4 2.5l0.4-1-0.2 0.5 0.2-0.4c-0.1-0.1-1.9-0.8-3-2.2-0.9-1.2-1.7-4.3 1.5-18.1z"/><path class="g" d="m139.5 167.9c-0.3 0.5-0.1 1.2 0.5 1.4l1.2 0.6c0.5 0.3 1.1 0.1 1.4-0.4 0.3-0.6 0.1-1.2-0.5-1.5l-1.2-0.6c-0.5-0.2-1.2 0-1.4 0.5z"/><path class="c" d="m147.6 147.7c3.2 10.3 4.1 16 2.8 17.9-1 1.5-2.8 2.4-2.8 2.4l0.5 0.9c0.1 0 2-1 3.1-2.7 1.5-2.3 0.8-7.7-2.6-18.8z"/><path class="g" d="m149.2 167.6c0.3 0.5 0.1 1.2-0.4 1.5l-1.1 0.7c-0.5 0.3-1.2 0.1-1.5-0.4-0.3-0.5-0.2-1.1 0.4-1.4l1.1-0.7c0.5-0.3 1.2-0.2 1.5 0.3z"/><path class="g" d="m148.9 146.9c-0.3-1.4-1.3-5-2-6.8-0.6-1.4-2.1-2.4-2.1-2.4-0.2 0-0.2-1.7-0.2-3.2 0.1-1.3 0.2-2.7-0.1-3.1-0.4-0.4-1.1-0.4-1.4-0.1-0.4 0.4-0.3 1.9-0.3 3.2 0 1.4-0.1 3.2-0.3 3.2 0 0-1.4 1-2 2.4-0.7 1.5-2 5.7-2.2 6.9-0.2 1.5 0.2 1.6 0.7 1.8 0.6 0.2 1-0.3 1.4-1.9 0.6-2.7 1.4-7.1 3.2-7.1 1.8 0.1 2.7 4.7 3.4 7.3 0.4 1.6 0.8 1.7 1.4 1.6 0.4-0.2 0.9-0.4 0.5-1.8z"/><path class="p" d="m139.7 128.5c-0.3 1.1-5.5 8-10.4 7.7-1.6-0.1-1.5-8.9-1.5-8.9l-0.1-0.6-1.9-9.1 10.7-6.7 1.6-0.9c0 0 0.3 2.5 0.8 5.7q0 0.2 0 0.4 0.1 0.3 0.1 0.5 0.1 0.7 0.2 1.5 0 0.5 0.1 1.1 0.1 0.5 0.1 1.1c0.4 3.8 0.4 7.7 0.3 8.2z"/><path class="g" d="m138.9 115.7c-2.7 7.1-8.6 10-11.2 11l-1.9-9.1 10.7-6.7 1.6-0.9c0 0 0.3 2.5 0.8 5.7z"/><path class="p" d="m115.1 100c-3.5 16 5.7 19.8 9.1 20.6 3.2 0.7 13.9 2.6 19-12.9 5.1-15.5-1.2-22.2-8.3-24.1-7-1.9-16.3 0.5-19.8 16.4z"/><path class="g" d="m120 97.7c0.4 0 0.8 0 1.2 0 0.4 0 0.7 0 1.1-0.2 0.2-0.2 0.3-0.5 0.1-0.7-0.2-0.5-0.8-0.6-1.3-0.6-0.5-0.1-1 0.1-1.4 0.4-0.5 0.4-0.2 1.1 0.3 1.1z"/><path class="g" d="m131.1 99.9c-0.4-0.1-0.7-0.3-1-0.4-0.4-0.2-0.8-0.3-1-0.7-0.1-0.2-0.1-0.5 0.1-0.7 0.5-0.3 1-0.2 1.5 0 0.5 0.2 0.9 0.5 1.1 1 0.3 0.4-0.2 1-0.7 0.8z"/><path class="g" d="m127.8 103.4c0-0.1 0.1 0 0.1 0.1-0.3 1-0.5 2.3 0.4 2.9 0.1 0 0.1 0.1 0 0.1-1.1-0.5-0.9-2.2-0.5-3.1z"/><path class="g" d="m129 102.4c1.8 0.3 1.1 3.8-0.5 3.6-1.6-0.2-1-3.8 0.5-3.6z"/><path class="g" d="m129.7 102.7c0.2 0.3 0.5 0.7 0.8 0.8 0.5 0.1 0.9-0.2 1.2-0.5q0.1 0 0.1 0.1c-0.2 0.6-0.5 1.3-1.3 1.3-0.7-0.1-1-0.7-1.1-1.5 0-0.1 0.2-0.3 0.3-0.2z"/><path class="g" d="m121.5 101.9c0-0.1-0.1 0-0.1 0.1-0.2 1.1-0.6 2.3-1.6 2.5 0 0-0.1 0.1 0 0.1 1.2 0 1.7-1.7 1.7-2.7z"/><path class="g" d="m120.7 100.6c-1.8-0.5-2.5 3-0.9 3.4 1.6 0.4 2.3-3.1 0.9-3.4z"/><path class="g" d="m119.9 100.6c-0.3 0.2-0.7 0.5-1 0.4-0.4 0-0.6-0.5-0.8-0.9q0-0.1 0 0c-0.2 0.7-0.1 1.4 0.5 1.7 0.6 0.2 1.1-0.2 1.4-0.9 0.1-0.1 0-0.3-0.1-0.3z"/><path class="g" d="m125.5 112.3c-0.3 0.3-0.6 0.6-1 0.6-0.4-0.1-0.9-0.3-1.2-0.5 0 0-0.1 0 0 0.1 0.2 0.4 0.7 0.8 1.3 0.8 0.5-0.1 0.8-0.5 1-0.9 0-0.1-0.1-0.1-0.1-0.1z"/><path class="g" d="m121.6 109.7c0 0 0.5 1.2 1.4 1.9 0.3 0.2 0.7 0.3 1.2 0.3 0.9 0 1.1-0.8 1.1-1.5 0.1-0.6-0.1-1.1-0.1-1.1 0 0-1.6 0.8-3.6 0.4z"/><path class="o" d="m123 111.6c0.3 0.2 0.7 0.3 1.2 0.3 0.9 0 1.1-0.8 1.1-1.5-0.9-0.1-2 0.3-2.3 1.2z"/><path class="g" d="m121.7 107.5c0 0-0.6 1.6-0.7 2.4 0 0 0.1 0.1 0.4 0.2q0 0 0 0c1.3 0.5 2.8 0.2 3.8-0.7 0.1-0.1 0-0.2-0.1-0.1-1.1 0.5-2.3 0.5-3.5 0.3 0-0.2 1-2.7 0.9-2.7-0.4-0.1-1.3 0-1.8 0 1-3.3 2.6-6.4 3.5-9.8 0.1-0.1-0.1-0.2-0.2-0.1-1.8 3.2-3.1 7-4.2 10.4-0.2 0.5 1.5 0.2 1.9 0.1z"/><path class="g" d="m141.6 108c-2.6-0.4-2.1-5.9-2.1-5.9 0 0-5.2-1-5.5-8.8 0 0-0.5 3.5 1.1 6.6 0 0-9-2.8-11.3-11.3 0 0 0.7 4.3 1.9 6 0 0-3.6-1.9-4.9-5.4 0 0-2.5 4.1-4 5.1 0 0 1.4-21.5 20.6-10.6 0 0 8.4 1.6 10.3 9.7 1.9 8.1-6.1 14.6-6.1 14.6z"/><path class="p" d="m141.9 113.6q-0.4 0.1-0.8 0.1-0.4 0-0.7-0.1-0.6-0.2-0.9-0.4-0.4-0.3-0.6-0.6c-0.3-0.5-0.5-1-0.5-1l1.5-4.2c0 0 4.2-4.6 6.3-3 2.1 1.5-1.5 8.5-4.3 9.2z"/><path class="g" d="m145.1 106.3c0.1 0 0.1 0.1 0 0.1-2 0.5-3.2 2.2-4.1 3.9 0.6-0.6 1.5-0.9 2.3-0.1 0 0 0 0.1-0.1 0.1-0.7-0.3-1.3-0.2-1.9 0.3-0.4 0.4-0.7 0.9-1.1 1.4-0.1 0.1-0.4 0-0.3-0.2q0 0 0 0c0.3-2.4 2.6-5.5 5.2-5.5z"/><path class="b" d="m141.8 112.8c-0.2 0.4-0.6 0.7-1 0.5-0.4-0.1-0.6-0.5-0.5-0.9 0.2-0.4 0.6-0.6 1-0.5 0.4 0.1 0.6 0.6 0.5 0.9z"/><path class="b" d="m143.5 111.9c-0.1 0.3-0.4 0.4-0.7 0.4-0.3-0.1-0.4-0.4-0.4-0.7 0.1-0.3 0.4-0.5 0.7-0.4 0.3 0.1 0.5 0.4 0.4 0.7z"/><path class="g" d="m141.8 86.6c-1.8-2.4-0.7-9.3 2.9-11.9 5.1-3.5 13.4 3.1 10.4 9.3-3.1 6.3-12 4.3-13.3 2.6z"/><path class="g" d="m153.6 76.3c-1.5-1.4-3.3-2.5-5.2-2.9-1-0.2-2-0.2-2.8 0.1-0.9 0.3-1.7 0.9-2.2 1.7-0.6 0.7-1.1 1.7-1.5 2.6-0.4 0.9-0.6 1.8-0.8 2.8-0.3 2-0.2 4.1 0.7 6-1.2-1.7-1.7-4-1.5-6.1q0.2-1.6 0.8-3.1c0.4-1 0.8-1.9 1.5-2.8 0.7-0.9 1.6-1.6 2.7-2 1-0.3 2.2-0.3 3.3 0 2 0.7 3.7 2.1 5 3.7z"/><path class="s" d="m319.2 464c-2.4 0.8-71.4-0.1-74.1-1.8-1-0.6-1.4-10.7-1.6-22.9q0-0.2 0-0.3-0.1-3.8-0.1-7.8 0-0.5 0-1l3.3-35.9 46.2 0.5-4.5 35.5-0.1 1.4-0.3 7.3v0.8c0 0 26.3 12.2 29 14.3 2.6 2.2 4.7 9.2 2.2 9.9z"/><path class="a" d="m319.2 464c-2.4 0.8-71.4-0.1-74.1-1.8-1-0.6-1.4-10.7-1.6-22.9q0-0.2 0-0.3-0.1-3.8-0.1-7.8 0-0.5 0-1l45 0.1-0.1 1.4-0.3 7.3v0.8c0 0 26.3 12.2 29 14.3 2.6 2.2 4.7 9.2 2.2 9.9z"/><path class="n" d="m319.2 464c-1.2 0.4-20 0.4-38.3 0-3.7-0.1-7.4-0.1-10.9-0.2-13-0.4-23.8-0.9-24.8-1.6-1-0.6-1.5-10.4-1.7-22.4q0-0.2 0-0.5 0-0.2 0-0.4l44.5 0.1v0.8c0 0 26.3 12.1 29 14.3 2.6 2.2 4.7 9.2 2.2 9.9z"/><path class="g" d="m318.5 461.3c-11.7-0.4-58.6-1.1-70.2-0.6-0.1 0-0.1 0.1 0 0.1 11.6 0.7 58.5 0.9 70.2 0.7 0.2 0 0.2-0.1 0-0.2z"/><path class="g" d="m293 439.2c-4.6-0.9-10.2-0.3-13.7 3-0.2 0.1 0 0.3 0.2 0.2 4.5-1.3 8.7-2.2 13.5-2.6 0.3 0 0.3-0.5 0-0.6z"/><path class="g" d="m296.3 441.3c-4.6-1-10.2-0.3-13.7 2.9-0.2 0.1 0 0.3 0.1 0.3 4.6-1.4 8.8-2.3 13.6-2.7 0.3 0 0.3-0.5 0-0.5z"/><path class="g" d="m299.6 443.3c-4.6-0.9-10.2-0.3-13.8 2.9-0.1 0.2 0.1 0.3 0.2 0.3 4.6-1.4 8.8-2.2 13.5-2.6 0.4-0.1 0.4-0.5 0.1-0.6z"/><path class="g" d="m280.9 464c-3.7-0.1-7.4-0.1-10.9-0.2-13-0.4-23.8-0.9-24.8-1.6-1-0.6-1.5-10.4-1.7-22.4q0-0.2 0-0.5 0-0.2 0-0.4c6.1 4.3 27.6 18.6 37.4 25.1z"/><path class="g" d="m291.1 439.2h-49.8c0 0 10.1-116.2 9.7-118.2-0.5-2.6-3.5-14.3-7.4-29.7-1.2-4.8-2.5-10-3.9-15.3-3.7-14.5-7.8-30.3-11.3-44-5.4-20.6-9.6-36.6-9.6-36.6h42.2c0 0 4.9 15.6 11.1 35.9 10.1 32.9 23.5 78.2 24.9 89.2 2.1 17.8-5.9 118.7-5.9 118.7z"/><path class="n" d="m288.9 430.7c-7.6-0.2-5.4-0.2-13-0.3-3.8 0-28.2-0.2-31.7 0.3 0 0 0 0.2 0 0.2 3.5 0.6 27.9 0.4 31.7 0.3 7.6-0.1 5.4-0.1 13-0.3 0.1 0 0.1-0.2 0-0.2z"/><path class="n" d="m260.3 313.9c-1.6-7.2-4-14.2-6.2-21.3q-6.4-21.5-13-43-3.2-10.7-6.5-21.5-1.7-5.4-3.4-10.8c-1.1-3.5-2.4-7-3.4-10.6-0.4-1.4-0.6-0.6-0.1 1.2 1.1 3.7 2.1 7.4 3.2 11.1q3.2 11 6.5 22c4.3 14.6 8.7 29.1 13 43.7q3.3 10.9 6.6 21.9c1 3.5 2.1 7 2.7 10.6 0.6 3.7 0.7 7.5 0.4 11.3-0.4 7.6-1.3 15.2-2 22.8q-1.1 11.4-2.1 22.8-2.2 22.7-4.2 45.4-0.3 2.9-0.5 5.8c0 0.6 0.4 0.7 0.5 0.1 1.6-15 3.4-30.1 4.8-45.1q2.1-22.4 4.2-44.8c0.3-3.7 0.7-7.5 0.7-11.2 0-3.5-0.4-7-1.2-10.4z"/><path class="n" d="m256.2 195.4c-2.9 22.7-8.5 65.1-12.6 95.9-9.5-37.3-24.8-95.9-24.8-95.9z"/><path class="s" d="m266.5 464.7c-2.4 0.8-71.4 0.1-74-1.5-1-0.7-1.5-10.7-1.8-22.9q0-0.2 0-0.4-0.1-3.8-0.1-7.7 0-0.6 0-1.1c-0.2-17.6 1.1-35.8 1.1-35.8l45.1 0.3-1.2 35.5-0.1 1.4-0.2 7.3-0.1 0.8c0 0 26.4 12 29 14.2 2.7 2.2 4.8 9.1 2.3 9.9z"/><path class="a" d="m266.5 464.7c-2.4 0.8-71.4 0.1-74-1.5-1-0.7-1.5-10.7-1.8-22.9q0-0.2 0-0.4-0.1-3.8-0.1-7.7 0-0.6 0-1.1h45l-0.1 1.4-0.2 7.3-0.1 0.8c0 0 26.4 12 29 14.2 2.7 2.2 4.8 9.1 2.3 9.9z"/><path class="n" d="m266.5 464.7c-2.4 0.8-71.4 0.1-74-1.5-1-0.7-1.5-10.7-1.8-22.9q0-0.2 0-0.4l44.6-0.1-0.1 0.8c0 0 26.4 12 29 14.2 2.7 2.2 4.8 9.1 2.3 9.9z"/><path class="g" d="m265.8 462c-11.6-0.4-58.6-0.9-70.2-0.4-0.1 0-0.1 0.1 0 0.1 11.6 0.6 58.5 0.8 70.2 0.5 0.2 0 0.2-0.2 0-0.2z"/><path class="g" d="m240.2 440c-4.5-0.9-10.2-0.3-13.7 3-0.1 0.1 0.1 0.3 0.2 0.2 4.5-1.3 8.8-2.2 13.5-2.6 0.3-0.1 0.4-0.6 0-0.6z"/><path class="g" d="m243.5 442c-4.6-0.9-10.2-0.2-13.7 3-0.1 0.1 0 0.3 0.2 0.3 4.5-1.4 8.8-2.3 13.5-2.7 0.3 0 0.3-0.5 0-0.6z"/><path class="g" d="m246.8 444c-4.6-0.9-10.2-0.2-13.7 3-0.1 0.1 0 0.3 0.2 0.3 4.5-1.4 8.7-2.3 13.5-2.7 0.3 0 0.3-0.5 0-0.6z"/><path class="g" d="m259.6 195.4c0 0-1 20.2-5.6 36.2q-0.5 1.9-1.2 3.8c0 0-4.8 1.8-12.1 6.3 0 0-0.5 16.2-1 34.3-0.5 20.2-1.1 42.8-1 47.6 0.4 17.9-2.2 116.3-2.2 116.3l-49.7 0.2c0 0 9-109.9 8.9-116.5-0.1-10.5 2.4-57.1 4.3-91.1 1.2-20.9 4.7-37.1 4.7-37.1 0 0 54.9 0 54.9 0z"/><path class="n" d="m234.8 431.1c-7.6-0.2-5.4-0.2-13-0.3-3.7 0-28.2-0.1-31.6 0.5-0.1 0-0.1 0.1 0 0.1 3.4 0.6 27.9 0.3 31.6 0.2 7.6-0.1 5.4-0.1 13-0.3 0.1 0 0.1-0.2 0-0.2z"/><path class="n" d="m206.4 202.6c-1 27.8-1.9 55.5-3.2 83.2-1.2 27.9-7.7 127.4-9.4 142.9 0 0.1 0.1 0.2 0.1 0.1 3.7-27.6 5.7-68.3 7.5-96 1.7-27.7 3-55.4 3.9-83.1 0.5-15.7 0.9-31.4 1.4-47.1 0-0.2-0.3-0.2-0.3 0z"/><path class="n" d="m254.9 234.2c-5 2-9.7 4.7-14.2 7.5-0.2 0.1-0.1 0.4 0.1 0.3 4.8-2.4 9.7-4.6 14.4-7.2 0.3-0.2 0.1-0.7-0.3-0.6z"/><path class="n" d="m255.2 217.1c-0.4 1.8-0.8 3.5-1.2 5.3-0.3 1.6-0.6 3.3-1 4.9-0.4 1.6-1.1 3.1-2.3 4.2-0.7 0.6-1.4 1.1-2.1 1.7q-0.6 0.4-1.1 0.9 0-0.4 0.1-0.7 0.2-1 0.3-2.1 0.4-2.2 0.8-4.4c0.4-3 0.8-5.9 1.4-8.8 0-0.1-0.1-0.2-0.2-0.1-0.7 2.9-1.5 5.8-2.1 8.7-0.3 1.4-1.5 8.4-1.5 8.9q-0.1 0.8-0.1 1.5c0 0.6-0.1 1.1 0 1.6 0 0.1 0.2 0.1 0.2 0q0 0 0 0c0.3-0.4 0.3-1 0.5-1.5q0.2-0.7 0.3-1.5 0.1-0.3 0.1-0.6c0.7-0.4 1.3-0.9 2-1.4 0.7-0.5 1.4-1 2-1.6 1.3-1 2.1-2.3 2.6-3.9 0.4-1.6 0.6-3.4 0.8-5.1 0.2-1.9 0.4-4 0.7-5.9 0-0.2-0.2-0.2-0.2-0.1z"/><path class="g" d="m251.2 134.9c-0.1-0.1-0.1-0.1-0.1 0 0.4 2.2-0.7 4.5-2.6 5.8-1.9 1.2-4.2 1.6-6.4 1.4-2.3-0.2-4.7-0.9-6.8-1.9-1.9-1-4-2.7-4.3-4.9 0-0.1-0.2-0.1-0.1 0 0.2 1.7 0.9 3.4 2.2 4.6 1.6 1.4 3.5 2.1 5.5 2.7 3.8 1 8.8 1.1 11.4-2.4 1.2-1.5 1.7-3.5 1.2-5.3z"/><path class="h" d="m267.7 217.3c-1.7 1.4-67.1 3.5-67.5 3-0.2-0.4 9-74.9 34.2-87.4 5.6-2.7 14.2 0.1 15.4 1.6 10 13.1 19 81.8 17.9 82.8z"/><path class="g" d="m242.4 148.2l2.8-5.4 4.6 4.7-1.1 4.1-4.3 0.5z"/><path class="g" d="m244.4 152.1l-2.7 47.6 5.5 15.2 6.3-15.8-4.8-47.5z"/><path class="a" d="m232.9 131.8c0 0 3.7 19.7 4.4 37.4 1.9 47.8-1.7 132.8-3 138.9-0.8 3.6-42-2.8-42-2.8 0 0 3.8-98 17.5-136.5 12.7-35.7 23.1-37 23.1-37z"/><path fill-rule="evenodd" class="f" d="m201.9 238.8c0 0 7.7 1.1 14.1 1.1 6.6 0 13.1-0.6 15-0.7 0.1 0 0.2 0.4 0.2 0.5 0.1 1.5 0.4 8.2 0.4 9.7 0.1 3.7-0.2 14.3-1.1 16.3-2.1 4.7-11.2 4.7-13.7 4.7-2.5 0-10.5 0.3-13.5-2.7-1.6-1.5-2-10.1-1.8-17.7 0.2-3.6 0.2-11.1 0.4-11.2zm29.3 0.8c-0.1-0.2-0.6-0.2-0.6-0.1q0 0.2-0.1 0.4 0.4-0.1 0.6-0.1 0.1 0 0.1-0.1 0-0.1 0-0.1zm-0.7 0.3c-2.9 0.3-9.7 1-14.4 1-5 0-11.7-0.8-13.7-1.3 0 1.4 0 2.5 0 3.9 4.6 0.9 13.6 2.4 28.1 0.6 0-0.6 0-3.1 0-4.2zm-14.4 29.6c8 0 11.5-1.7 12.7-3.4 1.4-1.9 1.6-5.3 1.7-9 0.1-3 0-12.2 0-12.3-4.7 0.9-17 2.2-28.1-0.4 0 4.3 0 7.8 0 12.2 0 3.1 0.1 8.4 1.7 10.3 1.4 1.5 6.2 2.5 12 2.6z"/><path class="a" d="m249 133.9c0 0 7.9 35.2 9.1 40.9 1.1 5.7 9.9 124.2 12 128.4 0.7 1.5 23-4.9 23-4.9 0 0-35.4-145-37.7-152-4.2-12.1-6.4-12.4-6.4-12.4z"/><path class="s" d="m249.8 137.2c1.6 5.1 7.9 23.3 11.1 36.2 2.2 8.7 2.8 15.9 3.3 17.8 0 0-19.9-7.7-24.5-8-7-0.4-19.1 13.6-16.5 15.6 4.2 3.1 24.3 14.2 40.7 18.2 8.9 2.3 26.5-8.2 25.7-17.3-1.1-12.9-22.2-47.9-30.4-57.9-4.2-5.2-11.4-10.9-9.4-4.6z"/><path class="a" d="m290.7 202.4c-1 9.2-13 16.2-19.6 16.3-11.6 0-45.4-12.1-45.4-12.1l14.9-25c0 0 23 9.3 23.6 9.6-0.2-0.7-4.7-22.8-6.8-30.1q-0.2-0.6-0.4-1.3c-0.6-2-1.5-4.7-2.5-7.6v-0.1c-0.5-1.6-1.1-3.3-1.6-4.9-2.4-7.2-4.8-14.1-4.8-14.1 3.9 0.9 7.7 3.2 13.7 10.3 6 7.1 30.5 43.9 28.9 59z"/><path class="g" d="m234.9 201.5q1.6-2.6 3.2-5.3 1.6-2.6 3.2-5.2c1.1-1.7 2.3-3.5 3.2-5.4 0 0-0.1-0.1-0.1 0-1.3 1.5-2.4 3.2-3.5 4.9q-1.7 2.6-3.3 5.2-1.6 2.6-3.2 5.2c-1 1.8-2.1 3.6-2.9 5.6 0 0 0.1 0.1 0.1 0 1.2-1.5 2.3-3.3 3.3-5z"/><path class="g" d="m274.3 218.2c-1.9 0.7-4 0.5-5.9 0.2-1.1-0.2-6-1.1-6.5-1.1-0.1 0-0.1 0.2 0 0.2 0.8 0.2 5.8 1.3 7.1 1.5 1.8 0.3 3.8 0.5 5.3-0.7 0-0.1 0-0.1 0-0.1z"/><path class="f" d="m271.1 195.4l-6.9-4.2c-0.2-0.7-4.7-22.8-6.8-30.1q-0.2-0.6-0.4-1.3c-0.6-2-1.5-4.7-2.5-7.6z"/><path class="g" d="m276.8 198.9c-1.9-1.6-3.9-3-6-4.4q-1.6-1-3.2-1.9c-1.2-0.6-2.4-1-3.6-1.7-0.1 0-0.2 0.1-0.1 0.2 1.1 0.6 2.1 1.3 3.2 2q1.6 1 3.2 2c2.2 1.3 4.3 2.6 6.5 3.9 0 0 0.1 0 0-0.1z"/><path class="s" d="m270.1 193.8c-1.8-0.1-12.5-3.6-14.1-2.2-10.2 8.5-13.1 6.5-15.3 7.5-16.4 8.2-38.2 17.7-45.8 17.3-11.5-0.6-15.5-10.5-13-19.5 4.8-17.7 31.2-51.3 42.7-60 6.1-4.6 5.2 2.8 2.3 10.8-1.7 4.6-4.6 11.5-7.5 18.3-2.6 6-9.4 21.4-9.6 21.8q0 0 0 0 0 0.1 0.1 0.1c0.6-0.1 14.5-5.7 28.4-8.4 4.9-0.9 15-2.1 18.5-0.3 2 1.1 2 2.4 2 2.4 0 0 1.7-0.1 3.4 1.5 1.2 1.1 1.5 2.5 1.5 2.5 0 0 1.8 0.4 2.7 1.5 1.1 1.4 1.1 2.8 1.1 2.8 2.5 0.8 2.6 3.9 2.6 3.9z"/><path class="g" d="m254.8 181c-1.5-0.1-2.9 0-4.3 0.2-0.1 0-0.1 0.1 0 0.1 1.4 0 2.8 0 4.2 0.1q2.1 0 4.2 0.2 0 0 0-0.1c-1.4-0.3-2.7-0.5-4.1-0.5z"/><path class="g" d="m263.6 185.5c-2.4-0.8-4.4-1.3-7.5-1.1-0.1 0-0.1 0.1 0 0.1 3 0 4.9 0.5 7.5 1.1 0.1 0 0.1-0.1 0-0.1z"/><path class="g" d="m267.5 189.8c-2.4-1.2-4.3-1.6-7.1-1.8-0.1 0-0.1 0.1 0 0.1 2.6 0.5 4.5 1 7.1 1.8 0 0 0.1-0.1 0-0.1z"/><path class="g" d="m237.6 179.6c-1.2 0.1-2.4 0.4-3.6 0.6q-1.9 0.4-3.8 0.8c-2.4 0.7-4.9 1.5-7.3 2.4-0.1 0.1 0 0.2 0.1 0.2q3.6-1 7.3-1.9 1.8-0.5 3.6-1c1.2-0.3 2.5-0.5 3.7-0.9 0.1 0 0.1-0.2 0-0.2z"/><path class="a" d="m227.9 181.6c2.6-0.7 3.7-0.6 3.7-0.6l12.9 25c0 0-40.2 11.8-48.3 12.1-8.1 0.4-16.9-6.5-16.5-16.7 0.6-14.2 25.9-47.1 38.4-59.6 5.7-5.8 12.2-9.8 13.8-8.7 1.8 1.3-2.1 8.7-4.2 14.3-4 10.3-17.8 40.5-17.8 40.5 0 0 15-5.4 18-6.3z"/><path class="g" d="m231.5 181c-2.2 0-12 2.7-16.8 4.5-4.8 1.7-9.4 3.8-13.8 6.4-2.5 1.5-4.9 3.1-7.3 4.8 0 0.1 0 0.2 0.1 0.1 4.3-2.7 8.9-5.1 13.5-7.2 4.6-2.1 9.3-4.1 14.1-5.7 2.7-0.9 7.4-2.2 10.1-2.7 0.7-0.2 0.2-0.2 0.1-0.2z"/><path class="g" d="m223.3 159.3c-0.6 1-1.3 1.9-1.8 2.9q-0.1 0-0.1 0.1 1.3-3.4 2.6-6.8c0-0.2-0.2-0.3-0.3-0.1-3.9 8.3-7.5 16.8-11.1 25.3-1 2.4-1.9 4.8-2.8 7.2 0 0.1 0.1 0.1 0.1 0.1 1.1-2.1 2.2-4.1 3.1-6.2 1-2.1 1.9-4.2 2.9-6.3q2.4-5.6 4.7-11.2 0.6-0.9 1.3-1.9c0.6-1 1.1-2 1.6-3 0.1-0.1-0.1-0.2-0.2-0.1z"/><path class="g" d="m235.2 200.2q-1.4-2.8-2.8-5.6-1.3-2.7-2.7-5.4c-0.9-1.9-1.8-3.8-2.9-5.6 0 0-0.1 0-0.1 0.1 0.6 1.9 1.5 3.7 2.3 5.5q1.3 2.8 2.7 5.6 1.3 2.7 2.7 5.4c1 1.9 2 3.8 3.2 5.5 0.1 0 0.2 0 0.2-0.1-0.7-1.9-1.7-3.7-2.6-5.4z"/><path class="g" d="m245.1 206.1c-1.1-2.4-2.8-4.8-4-7.2-0.1 0-0.2 0-0.2 0.1 1.1 2.2 2.2 4.5 3.2 6.7-5.5 1.9-11.4 3.5-17 5.2-5.8 1.6-11.6 3.2-17.5 4.5-3.2 0.7-6.5 1.6-9.8 2.2-0.2 0.1-0.2 0.2 0 0.2 5.9-0.7 11.8-2.1 17.5-3.5 5.9-1.5 11.7-3.2 17.5-5 3.2-1 10.3-3 10.3-3.2z"/><path class="s" d="m246.6 141.8c-1.1 0.5-9.6-1-12.7-5.4-0.2-0.3-0.1-3.7-0.2-7.9-0.1-2.5-0.2-5.4-0.5-7.9l16.6 2c0 0-1 5.5-0.4 10q0.1 0.6 0.2 1.1 0 0 0.1 0.1c0.5 2-0.9 7.1-3.1 8z"/><path class="g" d="m249.6 133.7q0 0 0.1 0.1c-10.7 2-14.8-9.3-15.9-13.1l16 1.9c0 0-1 5.5-0.4 10q0.1 0.6 0.2 1.1z"/><path class="s" d="m228.2 97.8c-1.8 5.8 1.2 22.4 5.3 26.1 6 5.4 15.7 5.9 20.3-1.2 4.4-6.9 0.1-28.5-4.5-31.9-6.7-5-18.5-1.5-21.1 7z"/><path class="g" d="m242.4 108.1c-0.1 0-0.1 0.1-0.1 0.1 0.2 1.1 0.3 2.5-0.6 3-0.1 0-0.1 0.1 0 0.1 1.2-0.4 1.1-2.2 0.7-3.2z"/><path class="g" d="m241.2 107.1c-1.9 0.2-1.4 3.8 0.3 3.7 1.7-0.2 1.2-3.8-0.3-3.7z"/><path class="g" d="m248.9 107.4c0 0 0.1 0.1 0.1 0.1 0.1 1.1 0.5 2.4 1.5 2.6 0.1 0.1 0.1 0.1 0 0.1-1.2 0-1.7-1.7-1.6-2.8z"/><path class="g" d="m249.8 106.1c1.8-0.4 2.4 3.2 0.7 3.6-1.6 0.3-2.2-3.3-0.7-3.6z"/><path class="f" d="m239.5 105.6c0.5-0.1 0.9-0.4 1.3-0.6 0.5-0.3 1-0.5 1.3-1 0.1-0.3 0-0.7-0.3-0.9-0.6-0.4-1.3-0.3-1.9 0-0.7 0.4-1.2 0.8-1.5 1.5-0.3 0.6 0.5 1.3 1.1 1z"/><path class="f" d="m250.9 104.1c-0.5 0-1-0.1-1.5-0.2-0.5-0.1-1-0.1-1.5-0.5-0.2-0.2-0.2-0.7-0.1-0.9 0.5-0.6 1.2-0.7 1.9-0.6 0.8 0 1.3 0.3 1.9 0.8 0.5 0.5 0 1.4-0.7 1.4z"/><path class="g" d="m242.7 118.7c0.3 0.3 0.7 0.6 1.1 0.6 0.4-0.1 0.8-0.3 1.1-0.5 0.1 0 0.1 0 0.1 0.1-0.2 0.4-0.8 0.8-1.3 0.8-0.6 0-0.9-0.5-1.1-0.9 0-0.1 0.1-0.1 0.1-0.1z"/><path class="g" d="m243.5 115.2c0.7 0.9 1.7 1.3 2.8 1.4q0.7 0 1.4-0.2 0.1 0 0.2 0 0.1-0.1 0.3-0.1c0.1 0 0.1-0.2 0.1-0.3q0-0.1 0-0.1 0 0 0 0v-0.1c-0.1-0.9-0.4-2.2-0.4-2.2 0.4 0.1 2.1 0.6 2 0.2-0.7-3.8-1.5-7.9-3.1-11.5 0-0.1-0.2 0-0.2 0.1 0.6 3.6 1.8 7.1 2.4 10.7-0.5-0.1-1.4-0.4-1.9-0.3-0.1 0.1 0.6 2.5 0.6 2.9q0 0 0 0.1c-1.4 0.4-2.6 0.1-4.1-0.7-0.1-0.1-0.2 0-0.1 0.1z"/><path class="g" d="m247.1 116.1c0 0-0.6 1.1-1.7 1.6-0.3 0.2-0.7 0.3-1.2 0.3-0.9-0.1-1.1-1-1-1.7 0.1-0.6 0.3-1.1 0.3-1.1 0 0 1.5 1 3.6 0.9z"/><path class="t" d="m245.4 117.7c-0.3 0.2-0.7 0.3-1.2 0.3-0.9-0.1-1.1-1-1-1.7 1 0 2 0.5 2.2 1.4z"/><path class="f" d="m228.9 112.9c3.4-0.5 4.7-5.5 4.8-9.2 0-2.7-1-8.1 1.7-10 2.6-1.8 5.7 0.2 8.9-0.5 1.4-0.2 2.6-1.7 4.1-1.7 2.4 0 4.8 6.4 4.8 6.4 0 0-0.8-9-9.4-9.7-8.2-0.6-14.2 2.4-15.8 8.4-2.2 7.7 0.9 16.3 0.9 16.3z"/><path class="s" d="m231.7 111.4c0 0-3.8-5.3-6.2-4-2.5 1.4 0.5 9.2 3.4 10.2 2.9 1 3.9-1.6 3.9-1.6z"/><path class="g" d="m226.4 109.6c-0.1 0-0.1 0.1 0 0.1 2 0.8 3.1 2.6 3.8 4.6-0.6-0.8-1.4-1.2-2.4-0.4 0 0 0 0.1 0.1 0.1 0.8-0.2 1.4-0.1 2 0.6 0.4 0.4 0.7 1 0.9 1.5 0.1 0.2 0.5 0.1 0.4-0.1q0 0 0 0c0-2.6-2.1-6.1-4.8-6.4z"/><path class="h" d="m249.3 132.1l-3.8 9.6-12-12.1-3.3 3.9c0 0 11.7 19.2 11.8 18.3l3.9-8.2 5.7 5.7-0.5-14.4z"/><path class="g" d="m251.8 142.1c-0.2-2.3-0.3-4.7-0.6-7.1 0-0.1-0.1-0.1-0.1 0-0.5 2.3 0.2 11.4 0.2 13.5q0 0-0.1 0c-0.2-0.2-5.3-5-5.3-4.9-0.9 1.3-3.7 7.3-3.9 7.8-1.9-3-9.7-15-11.9-17.9-0.1-0.1-0.2 0-0.2 0.1 1.7 3.2 11.8 19.1 12 19 0.1 0.1 3.6-7.3 4.1-8.7 0.8 1 5.9 6.4 5.9 6.1 0.2-2.4 0-5.5-0.1-7.9z"/><path class="s" d="m237.5 179.7c-7 1.3-15.2 3.8-18.8 5q-0.2 0-0.3 0c-3.2 1.1-5.2 1.9-5.7 1.9q0 0-0.1 0-0.5-0.4-0.9-0.6c-0.9-0.4-9.4-2-9-4.6 0.4-2.6 3.8-2.2 4.3-2.2-0.5-0.1-5.1-1.5-3.4-3.7 1.1-1.6 5.7-1.1 6.2-1-0.5-0.2-4.7-1.8-3.1-4.1 1.2-1.6 6.3-1.1 6.9-1-0.5-0.2-4.2-1.1-2.4-3 1.4-1.3 10.9 0.7 15.1 3.1 6.2 3.5 11.2 10.2 11.2 10.2z"/><path class="g" d="m218.7 184.7q-0.2 0-0.3 0c-1.4-1.2-6.8-4.5-11.2-5.3-0.3-0.1-0.3-0.2 0-0.2 5.4 0.6 10.1 4.1 11.5 5.5z"/><path class="g" d="m210 174.7c6 1.5 8.6 3 13.7 6.7 0 0 0.1-0.1 0.1-0.1-4.7-4-7.6-6-13.8-6.8-0.2 0-0.3 0.1 0 0.2z"/><path class="g" d="m213.8 169.5c5.7 1.9 8.7 3.5 13.2 7.5 0.1 0.1 0.2 0 0.1-0.1-4.2-4.5-7.9-6.5-13.3-7.5-0.3-0.1-0.4 0 0 0.1z"/><path class="b" d="m206.9 78.1c-1.2 11.2-11.2 19.4-22.4 18.2-4.6-0.5-8.6-2.4-11.7-5.3l-10.2 1.5 5.1-8.8c-1.3-3-1.8-6.4-1.4-9.8 1.2-11.2 11.2-19.4 22.4-18.2 11.2 1.2 19.3 11.2 18.2 22.4z"/><path fill-rule="evenodd" class="g" d="m206.9 78.1c-0.5 3.8-1.8 7.4-4.1 10.4-0.6 0.8-1.3 1.4-1.9 2.1-0.7 0.6-1.4 1.3-2.1 1.8-1.5 1.2-3.2 2.1-5 2.8-1.7 0.7-3.6 1.1-5.5 1.3-0.9 0-1.9 0.1-2.8 0q-1.4 0-2.8-0.3c-3.7-0.6-7.2-2.3-10-4.8l-10.1 1.5-0.7 0.1 0.4-0.6 4.9-8.7c-2.3-5.8-1.8-12.6 1.4-18 1.5-2.7 3.8-5.1 6.4-6.8 2.6-1.8 5.6-2.9 8.7-3.3 3.1-0.4 6.2-0.1 9.2 0.9 2.9 1 5.6 2.6 7.9 4.8 4.5 4.3 6.7 10.7 6.1 16.8zm-34.2 13.3l0.1-0.1h-0.2q0 0 0.1 0.1zm-5.5-7.7q0.1 0.1 0.1 0.2v-0.4zm39.7-5.5c0.6-6.2-1.7-12.6-6.2-16.8-2.3-2.1-5-3.7-7.9-4.6-2.9-1-6.1-1.2-9.1-0.7-3 0.4-5.9 1.6-8.4 3.3-2.5 1.8-4.6 4-6.1 6.7-1.5 2.6-2.3 5.6-2.6 8.6-0.2 3 0.3 6.1 1.4 8.9l0.1 0.2-0.1 0.1-4.7 8.2 9.4-1.3h0.2l0.1 0.1c2.7 2.5 6.1 4.3 9.7 5q1.4 0.3 2.8 0.3c0.9 0.1 1.9 0.1 2.8 0 1.9-0.2 3.7-0.5 5.5-1.2 1.7-0.6 3.4-1.5 4.9-2.6 0.8-0.6 1.4-1.2 2.1-1.8 0.7-0.7 1.4-1.4 1.9-2.1 2.3-3 3.7-6.6 4.2-10.3zm-43.6 13.9l-0.8 0.1 0.4 0.6z"/><path class="h" d="m184.1 65h4.9v22h-4.9z"/><path class="h" d="m175.6 78.4v-4.8h21.9v4.8z"/></svg>